<?xml version="1.0" standalone="no"?>
<!DOCTYPE svg PUBLIC "-//W3C//DTD SVG 20010904//EN"
 "http://www.w3.org/TR/2001/REC-SVG-20010904/DTD/svg10.dtd">
<svg version="1.0" xmlns="http://www.w3.org/2000/svg"
 width="2730.000000pt" height="1365.000000pt" viewBox="0 0 2730.000000 1365.000000"
 preserveAspectRatio="xMidYMid meet">

<g transform="translate(0.000000,1365.000000) scale(0.100000,-0.100000)"
fill="#000000" stroke="none">
<path d="M14 11208 c3 -1344 4 -2731 3 -3083 -4 -1302 -2 -5408 3 -5645 3
-135 1 -748 -4 -1363 l-9 -1117 5130 0 5130 0 -4 24 c-3 14 -16 35 -29 47 -27
26 -32 71 -9 91 8 7 28 25 45 40 18 17 41 28 58 28 16 0 53 8 83 19 31 10 89
22 130 26 40 4 87 14 102 22 33 17 154 44 212 48 22 1 49 -4 60 -11 11 -8 26
-14 34 -14 8 0 22 -7 31 -15 13 -12 30 -14 74 -9 56 7 57 7 51 35 -17 91 -18
84 22 101 121 52 385 85 430 53 14 -10 37 -13 74 -10 30 2 75 4 102 4 52 1 59
13 31 56 -16 25 -16 25 37 50 30 14 67 25 82 25 15 0 49 11 75 23 26 13 81 30
122 37 41 7 85 19 96 26 12 7 45 14 73 15 28 2 51 5 51 9 0 3 44 17 98 30 53
14 99 28 100 32 2 5 20 8 40 8 21 1 55 8 77 16 57 22 137 34 153 22 8 -8 12
-6 12 6 0 19 30 22 31 4 1 -7 4 -2 8 12 6 20 15 26 51 31 24 3 46 11 48 17 2
7 13 12 24 12 11 0 35 9 52 19 17 10 47 22 66 26 30 7 33 6 22 -7 -6 -8 -9
-17 -6 -20 7 -7 -77 -48 -99 -48 -9 0 -17 -5 -17 -12 0 -7 -16 -29 -36 -49
-51 -52 -42 -73 28 -67 34 4 56 12 65 24 12 17 14 17 30 1 16 -15 16 -18 -1
-35 -16 -18 -16 -22 -1 -63 9 -24 20 -60 24 -79 7 -41 43 -54 60 -22 6 11 27
27 48 36 40 17 63 30 102 59 13 9 37 17 52 17 18 0 29 5 29 13 0 15 -41 37
-67 37 -8 0 -24 11 -35 25 -11 14 -29 25 -41 25 -12 0 -32 3 -44 6 -21 6 -22
11 -17 48 4 22 11 47 17 53 6 9 6 13 -2 13 -6 0 -11 5 -11 10 0 6 5 10 11 10
15 0 39 -26 39 -42 0 -8 14 -14 35 -15 25 -1 35 2 35 13 0 8 5 12 10 9 6 -3
10 4 10 18 0 23 -4 25 -70 31 -73 7 -90 21 -43 32 15 4 34 13 41 21 7 7 21 13
30 13 23 0 62 28 62 45 0 24 -68 56 -106 49 -19 -3 -34 -4 -34 -1 0 13 60 67
74 67 20 0 66 50 66 72 0 9 21 34 48 55 26 21 49 41 52 45 10 12 81 58 90 58
6 0 27 15 47 34 57 50 77 53 118 17 41 -36 81 -48 105 -33 10 6 66 9 143 7
114 -4 129 -2 145 15 34 37 99 50 209 43 101 -6 247 10 259 28 3 5 23 9 44 9
21 0 45 7 54 15 8 8 32 15 53 15 22 0 43 4 48 9 6 5 39 15 75 21 36 7 74 16
85 21 11 5 29 10 40 12 39 7 110 28 148 44 27 12 43 13 59 6 18 -8 32 -5 67
14 54 28 63 29 87 2 15 -17 27 -20 58 -16 52 7 64 21 41 47 -20 22 -16 24 40
33 29 5 99 28 140 47 22 9 144 28 240 37 38 3 67 11 80 23 11 10 49 26 84 35
36 9 78 27 94 41 21 18 40 24 76 24 33 0 56 6 74 20 14 11 34 20 44 20 11 0
29 9 41 20 12 11 30 20 41 20 33 0 71 19 71 35 0 18 27 30 95 39 28 4 69 14
93 22 23 8 49 14 58 14 27 0 -4 -40 -36 -47 -16 -3 -27 -10 -23 -16 7 -11 143
-1 156 12 6 6 0 17 -12 27 -11 10 -21 21 -21 25 0 4 35 15 78 24 68 14 107 25
238 66 17 5 42 9 56 9 14 0 31 7 38 15 8 9 30 15 59 15 25 0 71 7 101 16 30 9
73 19 95 24 22 4 58 17 80 29 21 11 55 21 74 21 20 0 43 8 55 19 12 11 48 27
81 36 33 9 85 23 115 31 30 9 69 18 85 21 17 3 37 11 45 19 31 26 106 54 150
54 43 0 150 27 218 56 18 8 39 14 47 14 15 0 88 22 220 66 39 12 117 37 175
54 58 18 137 46 175 64 39 17 90 37 115 45 25 7 88 26 140 44 52 17 113 34
135 39 60 11 142 28 215 44 36 8 77 14 93 14 15 0 45 11 66 24 50 32 103 46
175 46 47 0 64 5 88 25 37 32 98 34 138 5 27 -19 32 -20 77 -6 26 8 60 17 74
20 39 8 71 38 60 55 -13 21 -225 37 -260 20 -14 -7 -75 -16 -136 -20 -193 -14
-338 -36 -389 -58 -45 -20 -55 -21 -120 -10 -68 11 -139 12 -181 4 -11 -2 -24
-4 -28 -4 -5 -1 -36 -27 -70 -60 -58 -55 -101 -79 -112 -62 -5 9 39 98 61 122
8 9 35 22 58 28 42 10 116 75 116 102 0 6 11 25 24 42 14 18 28 46 32 62 9 38
50 121 64 130 7 4 3 17 -10 35 -16 22 -20 41 -18 87 3 58 1 61 -34 48 -15 -6
-18 -1 -18 34 0 28 5 44 15 47 21 9 46 -15 43 -40 -2 -13 3 -22 14 -24 13 -2
18 7 24 44 7 49 -2 64 -38 64 -21 0 -61 76 -53 101 7 21 -12 30 -94 43 -36 6
-66 16 -67 21 -2 6 11 19 29 30 28 18 32 26 32 67 1 52 19 79 64 98 17 7 33
25 42 48 7 20 15 40 17 45 2 4 -11 7 -30 7 -39 0 -84 40 -74 66 5 13 1 15 -19
12 -16 -3 -51 8 -97 31 -69 34 -73 38 -76 73 -3 36 -2 37 35 43 60 10 66 13
57 33 -4 9 -9 52 -10 95 -2 74 -1 80 27 111 24 28 28 38 20 58 -5 13 -16 30
-25 37 -20 17 -21 45 -1 65 8 8 15 26 15 39 0 20 -9 28 -40 41 -22 9 -47 16
-55 16 -18 0 -19 36 -2 68 l13 23 26 -21 c32 -24 44 -25 52 -3 8 20 -28 60
-71 78 -36 15 -63 60 -63 103 0 20 -13 43 -45 78 -25 27 -45 52 -45 57 0 5 -9
21 -20 37 -17 24 -18 29 -5 40 8 7 30 12 49 12 24 0 36 5 39 18 7 25 -38 70
-71 70 -31 1 -111 21 -129 33 -17 11 -33 0 -33 -21 0 -38 -15 -44 -54 -22 -44
27 -53 55 -32 105 20 48 20 98 0 141 -14 28 -22 34 -48 34 -18 0 -37 -5 -43
-11 -16 -16 -74 30 -66 51 3 8 9 35 14 59 8 39 49 99 49 71 0 -16 16 -12 55
15 26 17 45 23 64 19 25 -5 30 -2 44 34 10 24 24 42 37 45 20 5 22 10 15 59
-8 58 -28 98 -49 98 -7 0 -25 9 -40 21 -15 12 -37 19 -53 17 -26 -3 -28 -6
-25 -44 2 -33 -3 -51 -27 -87 -23 -33 -31 -56 -31 -88 l0 -43 -17 24 c-9 13
-24 31 -34 41 -23 23 -34 95 -19 124 7 13 10 35 6 50 -5 21 -11 25 -27 20 -13
-4 -27 0 -39 10 -15 14 -17 22 -8 46 11 31 -6 59 -36 59 -9 0 -16 7 -16 15 0
8 -9 19 -20 25 -11 6 -20 17 -20 24 0 22 -56 76 -78 76 -37 0 -45 24 -40 126
2 52 9 98 14 102 6 4 16 21 22 38 12 27 10 37 -17 96 -25 57 -34 67 -61 73
-26 6 -31 11 -26 28 3 12 6 43 6 70 0 43 2 47 23 47 22 0 57 27 57 43 0 11
-88 8 -95 -3 -12 -19 -23 -10 -30 26 -5 31 -2 41 21 65 15 16 22 30 16 30 -18
2 -24 4 -64 18 -35 12 -38 15 -38 51 0 38 -2 40 -60 66 -33 15 -60 30 -60 34
0 13 74 10 95 -4 13 -9 27 -11 35 -6 9 5 38 -4 79 -25 36 -18 86 -36 110 -40
48 -8 169 -68 244 -121 26 -19 51 -34 56 -34 4 0 28 -17 52 -38 24 -21 65 -53
92 -71 26 -17 47 -36 47 -40 0 -4 11 -13 24 -19 13 -6 52 -37 87 -69 74 -67
138 -117 145 -111 2 3 -16 45 -41 94 -41 82 -45 95 -45 165 0 41 -5 80 -11 86
-9 9 -19 149 -19 261 0 6 -13 26 -29 44 -49 58 -56 94 -57 323 -1 116 -5 246
-9 291 -5 62 -4 88 7 110 10 19 15 70 17 148 1 66 9 144 17 175 8 31 17 103
19 160 3 74 9 108 20 121 8 9 15 32 15 52 0 20 9 46 20 61 11 14 20 34 20 46
0 11 6 40 14 63 13 37 22 92 25 146 1 7 6 10 11 7 6 -3 10 3 10 14 0 10 -5 21
-11 23 -6 2 -15 24 -19 48 -11 59 10 104 43 94 28 -8 57 -33 57 -49 0 -7 7
-18 15 -25 8 -7 13 -16 10 -20 -4 -6 75 27 81 34 1 0 4 13 8 29 5 22 1 32 -20
52 -23 21 -26 32 -25 79 2 89 23 122 108 166 31 16 64 22 132 25 63 2 95 8
105 18 10 9 54 19 118 26 57 6 132 16 168 21 45 7 82 7 120 -1 30 -6 98 -14
150 -19 52 -5 111 -14 130 -19 137 -39 266 -82 330 -112 41 -20 102 -46 135
-59 33 -13 78 -40 100 -61 22 -20 62 -49 88 -64 l49 -28 111 12 c118 12 183 6
267 -23 25 -9 60 -16 78 -16 18 0 54 -6 80 -14 26 -8 75 -22 109 -32 57 -16
64 -21 75 -53 19 -53 14 -240 -7 -285 -23 -47 -38 -58 -85 -60 -33 0 -46 6
-77 36 -33 32 -201 118 -231 118 -5 0 -23 7 -38 15 -70 36 -70 13 0 -158 57
-140 86 -244 117 -422 27 -152 26 -149 40 -339 15 -209 12 -255 -41 -616 -5
-36 -16 -117 -24 -180 -29 -225 -85 -461 -150 -634 -14 -37 -26 -73 -26 -78 0
-5 52 -60 116 -122 63 -62 123 -125 132 -139 9 -14 47 -70 84 -125 37 -54 81
-125 99 -158 17 -32 38 -72 47 -89 27 -50 28 -250 2 -439 -18 -137 -21 -207
-21 -490 0 -191 -7 -439 -16 -586 l-16 -255 -36 -65 c-19 -36 -45 -81 -56
-101 -20 -36 -129 -139 -147 -139 -5 0 -7 8 -4 18 3 9 10 45 15 78 5 34 20 84
34 110 15 31 27 76 31 121 3 39 8 77 11 85 7 18 -114 78 -156 78 -48 0 -126
84 -191 205 -48 89 -62 129 -99 280 -5 22 -11 141 -12 265 -2 192 1 232 15
270 10 25 18 56 18 69 0 13 9 38 20 56 25 40 38 139 20 160 -7 8 -25 15 -40
15 -37 0 -48 17 -42 67 3 30 9 44 23 48 37 12 21 47 -58 126 -59 58 -88 80
-120 88 -37 10 -44 16 -54 51 -12 38 -37 60 -48 41 -4 -5 -17 17 -31 49 -19
46 -31 61 -51 65 -28 6 -28 8 -33 73 -2 31 3 51 16 67 11 15 18 39 18 67 -1
81 -70 150 -225 223 -73 35 -114 72 -158 140 -42 65 -53 75 -79 75 -13 0 -28
4 -33 9 -6 6 -35 16 -66 24 -30 8 -73 24 -94 36 -22 12 -45 21 -53 21 -7 0
-31 17 -55 38 -63 57 -88 72 -123 72 -32 0 -63 24 -49 38 4 4 113 6 242 5 259
-3 298 -9 452 -69 47 -19 95 -34 106 -34 11 0 56 -16 100 -36 125 -56 184 -74
237 -74 58 0 88 13 88 40 0 10 5 22 11 26 8 4 10 29 6 71 -7 92 -2 103 42 103
51 0 97 51 106 118 3 26 10 61 16 78 11 37 25 129 39 274 6 58 17 128 26 155
24 80 15 528 -14 650 -70 299 -184 476 -367 567 -38 20 -115 48 -170 63 -79
22 -105 34 -123 56 -19 23 -32 29 -63 29 -22 0 -72 5 -112 11 -53 8 -135 8
-317 -1 -273 -13 -308 -18 -397 -60 -34 -17 -77 -30 -96 -30 -28 0 -40 -7 -61
-35 -15 -19 -32 -49 -38 -65 -5 -17 -14 -30 -18 -30 -5 0 -11 -9 -15 -19 -3
-11 -30 -43 -59 -73 -70 -69 -144 -179 -168 -248 -37 -107 -68 -239 -78 -331
-12 -121 -13 -342 0 -444 5 -44 18 -147 28 -230 11 -92 25 -163 36 -184 10
-18 25 -57 33 -85 8 -28 19 -55 23 -61 4 -5 20 -46 34 -90 65 -197 108 -275
166 -305 23 -12 44 -29 47 -38 4 -9 15 -28 25 -41 11 -15 18 -40 18 -68 0 -41
-3 -45 -47 -73 -26 -17 -52 -30 -58 -30 -6 0 -22 -11 -34 -24 -22 -23 -22 -24
-3 -37 10 -8 26 -27 35 -44 8 -16 32 -50 54 -75 81 -94 273 -411 314 -520 28
-72 55 -410 64 -795 4 -154 9 -305 10 -335 8 -133 5 -606 -5 -720 -8 -102 -17
-145 -49 -237 -22 -62 -52 -131 -68 -155 -16 -24 -34 -56 -41 -72 -7 -16 -27
-47 -45 -70 -42 -54 -57 -81 -57 -105 0 -10 -11 -26 -25 -35 -55 -36 -54 -78
3 -97 82 -27 974 0 1182 36 47 8 136 18 198 21 66 4 119 12 126 19 6 7 30 18
51 25 22 7 54 18 70 26 38 17 132 48 212 70 35 9 68 23 74 30 6 8 18 14 25 14
8 0 16 11 20 24 3 13 19 33 35 45 l29 22 0 -26 c0 -15 6 -36 12 -48 7 -12 14
-51 15 -87 1 -36 4 -81 8 -102 13 -68 -22 -81 -273 -106 -51 -5 -95 -12 -98
-15 -4 -3 6 -17 21 -29 l27 -24 -27 -32 c-15 -18 -25 -35 -23 -38 3 -2 27 0
55 6 27 6 83 10 124 8 80 -3 77 0 70 -65 -3 -26 -55 -73 -94 -84 -23 -7 -60
-29 -82 -49 -22 -21 -53 -41 -70 -44 -16 -4 -49 -25 -71 -48 -36 -34 -45 -38
-62 -29 -11 6 -32 11 -45 11 -20 0 -26 -6 -31 -35 -6 -33 -9 -35 -45 -35 -20
0 -46 -7 -57 -15 -21 -16 -94 -20 -94 -5 0 19 -55 11 -68 -10 -7 -11 -19 -20
-27 -20 -8 0 -15 -4 -15 -10 0 -6 -35 -10 -84 -10 -47 0 -88 -4 -91 -10 -3 -5
-23 -10 -44 -10 -68 0 -73 -11 -72 -146 1 -65 6 -123 11 -128 5 -5 20 -5 37 1
44 14 72 5 80 -25 4 -15 7 -106 7 -202 l1 -174 -70 -47 c-77 -52 -90 -76 -37
-71 44 4 42 -16 -8 -68 l-40 -42 0 -83 c0 -46 5 -87 10 -90 6 -4 23 -4 39 0
26 6 29 10 35 67 11 106 41 183 71 183 15 0 21 -12 31 -73 7 -40 18 -79 24
-87 21 -25 56 -18 69 13 17 41 69 72 122 72 24 0 54 7 66 15 37 26 86 125 91
185 2 30 5 56 6 56 0 1 11 5 24 8 21 7 22 5 22 -59 l0 -66 43 3 42 3 2 143 c3
157 11 180 58 168 31 -8 36 -48 13 -105 -12 -31 -10 -142 3 -155 5 -6 23 -6
46 0 34 8 38 13 48 58 l10 49 14 -36 c8 -20 18 -37 22 -37 4 0 10 -14 14 -31
6 -27 2 -34 -32 -64 -21 -18 -52 -35 -70 -38 -18 -3 -54 -18 -80 -34 -26 -15
-73 -38 -103 -51 -193 -82 -327 -132 -355 -132 -8 0 -15 -4 -15 -9 0 -16 -71
-52 -134 -67 -34 -9 -78 -27 -99 -41 -22 -13 -56 -31 -78 -38 -21 -8 -55 -25
-76 -39 -21 -15 -42 -26 -48 -26 -6 0 -30 -11 -55 -24 -25 -12 -67 -31 -95
-41 -27 -10 -54 -22 -60 -25 -5 -4 -28 -13 -50 -20 -22 -7 -56 -20 -75 -30
-86 -42 -357 -160 -366 -160 -4 0 -34 -13 -68 -29 -97 -45 -174 -77 -276 -116
-52 -20 -124 -51 -160 -69 -36 -18 -83 -39 -105 -46 -22 -7 -54 -21 -70 -31
-17 -10 -63 -29 -102 -44 -40 -14 -91 -37 -115 -50 -24 -14 -50 -25 -58 -25
-8 0 -35 -11 -60 -24 -25 -13 -59 -27 -77 -30 -17 -4 -37 -14 -44 -22 -6 -8
-18 -14 -27 -14 -9 0 -34 -9 -56 -19 -23 -11 -95 -42 -162 -70 -66 -28 -141
-62 -166 -76 -25 -14 -71 -34 -103 -45 -32 -11 -74 -29 -92 -40 -19 -11 -41
-20 -49 -20 -16 0 -90 -35 -114 -54 -8 -7 -40 -20 -70 -31 -30 -10 -75 -28
-100 -41 -25 -12 -63 -27 -85 -34 -22 -7 -44 -16 -50 -21 -5 -5 -16 -9 -25 -9
-8 0 -35 -10 -60 -21 -25 -12 -67 -32 -95 -45 -27 -13 -78 -32 -112 -43 -72
-23 -103 -38 -103 -51 0 -7 1890 -10 5265 -10 l5265 0 0 6825 0 6825 -2624 0
-2623 0 -7 -31 c-3 -17 -6 -44 -6 -59 0 -14 -3 -30 -6 -33 -12 -11 -45 36 -38
52 4 9 9 28 12 44 4 25 2 27 -27 27 l-31 0 0 -127 c0 -71 3 -138 6 -150 7 -27
35 -30 58 -8 13 14 16 13 26 -4 13 -25 13 -131 0 -165 -8 -22 -16 -26 -50 -26
-33 0 -40 -3 -40 -19 0 -14 13 -24 44 -36 44 -17 44 -18 50 -74 6 -57 7 -1440
1 -1791 -2 -107 -6 -402 -9 -655 -3 -253 -8 -525 -11 -605 -18 -548 -27 -900
-24 -995 l4 -110 41 -55 c66 -88 159 -293 182 -400 44 -213 62 -495 43 -683
-20 -194 -59 -418 -86 -487 -9 -25 -21 -77 -25 -116 -9 -75 -36 -168 -65 -224
-9 -18 -26 -60 -37 -93 -10 -32 -35 -82 -54 -109 -31 -46 -34 -57 -34 -122 0
-39 4 -97 10 -129 8 -50 16 -65 52 -101 24 -24 53 -57 66 -74 13 -18 36 -34
50 -37 107 -22 120 -32 133 -100 5 -25 36 -101 70 -169 40 -82 63 -141 66
-173 4 -33 13 -55 29 -71 13 -13 24 -27 24 -33 0 -5 13 -22 29 -38 15 -15 36
-52 46 -81 37 -110 1 -420 -59 -512 -8 -13 -20 -54 -26 -93 -7 -38 -19 -95
-27 -125 -8 -30 -20 -75 -25 -100 -14 -62 -85 -188 -109 -195 -37 -12 -59 21
-59 85 0 67 -23 105 -70 115 -37 8 -50 31 -50 85 0 24 -11 61 -26 92 -20 39
-25 63 -23 102 3 53 -14 96 -38 96 -7 0 -13 5 -13 10 0 6 -9 10 -20 10 -19 0
-50 45 -50 73 0 8 -10 21 -23 30 -12 8 -31 31 -42 50 -18 35 -18 37 0 70 13
24 16 42 10 63 -4 16 -6 47 -5 69 8 111 5 155 -12 171 -16 16 -18 16 -28 -10
-5 -15 -10 -42 -10 -61 0 -18 -5 -56 -11 -83 -11 -44 -9 -57 11 -116 l24 -66
-21 -68 c-19 -60 -21 -87 -18 -254 2 -103 6 -191 10 -197 3 -6 16 -11 28 -11
14 -1 31 -14 47 -38 21 -32 25 -50 28 -143 3 -96 2 -108 -20 -142 -13 -20 -28
-36 -34 -37 -11 0 -44 62 -44 85 0 7 -4 17 -10 20 -6 4 -9 -93 -9 -270 1 -176
4 -275 11 -275 5 0 12 9 15 21 11 40 46 19 78 -48 17 -34 35 -63 40 -63 6 0
19 7 30 17 26 22 108 53 141 53 27 0 84 -29 84 -42 0 -4 8 -8 18 -8 9 0 26 -7
36 -15 11 -8 32 -15 47 -15 15 0 35 -7 43 -16 19 -19 96 -10 96 11 0 7 14 18
31 25 25 11 32 11 39 0 4 -7 9 -8 11 -2 2 5 26 13 54 17 27 3 55 11 62 17 8 6
30 8 52 4 63 -10 124 3 159 34 18 15 32 35 32 44 0 13 11 16 56 16 54 0 84 14
84 39 0 6 1 11 3 12 11 2 358 21 452 24 122 4 247 21 276 36 8 4 93 12 187 18
95 6 181 15 192 21 30 16 111 28 308 45 96 9 203 19 237 24 88 13 216 58 240
86 11 12 30 26 42 29 21 7 113 106 113 122 0 4 14 22 30 39 30 31 31 35 38
156 7 139 7 154 4 327 -2 117 -3 123 -25 133 -13 6 -29 26 -36 45 -7 19 -26
44 -42 56 -19 15 -29 31 -29 49 0 30 -25 96 -44 114 -8 8 -13 53 -15 126 -2
100 -5 117 -23 136 -11 12 -25 20 -29 17 -5 -3 -9 0 -9 6 0 6 -9 14 -19 18
-11 4 -37 23 -58 43 -22 20 -49 42 -62 48 -16 9 -21 19 -18 33 4 15 -2 23 -26
33 -17 7 -37 11 -44 8 -7 -3 -18 7 -25 24 -7 15 -19 39 -29 53 -9 14 -20 39
-24 55 -4 17 -8 192 -10 390 -2 341 -3 363 -24 420 -13 37 -21 81 -20 115 1
61 -16 221 -31 290 -5 25 -19 90 -31 145 -29 139 -108 400 -140 460 -16 32 -7
126 13 138 20 13 84 -17 100 -48 6 -11 29 -45 53 -75 54 -70 80 -123 89 -179
4 -24 15 -69 25 -100 26 -76 52 -225 62 -351 11 -153 25 -230 47 -259 44 -61
47 -73 52 -246 4 -139 8 -177 24 -207 19 -39 50 -50 73 -27 23 23 123 -19 123
-52 0 -19 43 -71 143 -171 53 -54 110 -117 125 -141 35 -55 174 -200 229 -238
23 -16 53 -29 66 -29 24 0 77 -55 77 -79 0 -6 5 -11 10 -11 6 0 10 -6 10 -14
0 -8 15 -43 33 -78 29 -58 32 -70 32 -158 0 -66 -5 -108 -16 -135 -10 -22 -22
-59 -28 -82 -7 -24 -16 -43 -21 -43 -6 0 -19 -9 -30 -20 -11 -11 -28 -20 -39
-20 -10 0 -23 -6 -29 -13 -10 -12 -53 -140 -66 -199 -15 -65 -90 -198 -157
-277 -78 -93 -82 -108 -42 -189 l18 -37 90 1 c101 2 165 12 165 25 0 13 77 11
85 -2 13 -20 -16 -68 -46 -74 -15 -4 -46 -15 -68 -26 -22 -10 -46 -19 -54 -19
-8 0 -22 -9 -32 -20 -11 -12 -26 -18 -35 -15 -10 3 -20 -1 -23 -9 -3 -8 -21
-17 -39 -21 -18 -4 -51 -18 -74 -31 -22 -13 -47 -24 -55 -24 -8 0 -32 -12 -53
-26 -66 -45 -147 -84 -175 -84 -14 0 -39 -9 -56 -20 -16 -11 -36 -20 -43 -20
-7 0 -46 -16 -85 -35 -40 -19 -117 -46 -172 -60 -63 -16 -140 -46 -208 -80
-99 -51 -113 -55 -176 -55 -52 0 -78 -5 -112 -23 -54 -29 -81 -36 -179 -47
-45 -5 -100 -20 -135 -35 -77 -36 -129 -54 -195 -70 -59 -15 -158 -62 -201
-96 -16 -12 -46 -22 -75 -25 -63 -5 -128 -22 -179 -45 -22 -10 -56 -20 -75
-22 -19 -3 -66 -17 -105 -31 -38 -15 -106 -39 -150 -53 -44 -14 -109 -37 -145
-49 -36 -13 -88 -28 -117 -34 -97 -18 -231 -99 -258 -156 -14 -30 -16 -51 -10
-111 6 -69 5 -77 -16 -99 -21 -22 -23 -34 -23 -132 l-1 -107 -25 0 -25 0 4
176 c2 116 0 179 -7 183 -13 8 -115 -3 -133 -15 -11 -6 -15 -73 -20 -316 -7
-350 -7 -353 62 -353 33 0 45 7 93 56 34 35 61 54 70 51 22 -9 86 12 86 28 0
8 17 19 41 25 l40 11 -7 45 c-4 28 -3 44 4 44 14 0 20 -24 20 -93 1 -59 19
-97 48 -97 12 0 54 81 91 171 8 22 19 39 23 39 7 0 20 -30 24 -54 0 -5 8 -13
17 -19 12 -8 21 -5 37 11 12 12 26 22 31 22 5 0 13 9 16 20 8 24 47 27 66 4 7
-8 25 -22 41 -30 38 -20 35 -42 -10 -90 -43 -47 -71 -64 -104 -64 -13 0 -36
-8 -53 -18 -44 -26 -105 -45 -140 -44 -20 1 -40 -8 -60 -27 -27 -24 -98 -57
-165 -77 -14 -3 -47 -17 -73 -30 -26 -12 -79 -30 -116 -38 -82 -19 -218 -72
-244 -94 -34 -30 -41 -56 -49 -182 -4 -69 -11 -163 -17 -210 -5 -47 -10 -95
-10 -107 -1 -31 -21 -29 -21 1 0 14 -5 37 -10 52 -6 14 -12 53 -13 85 -1 32
-6 61 -10 65 -4 4 -7 0 -7 -9 0 -9 -8 -20 -17 -25 -16 -9 -16 -11 0 -27 20
-19 21 -27 7 -41 -5 -5 -12 -68 -15 -139 -6 -134 -11 -169 -24 -161 -15 10
-22 307 -9 383 9 53 9 84 1 119 -12 50 -2 84 24 84 16 0 17 -52 2 -67 -14 -14
-2 -53 16 -53 7 0 15 -6 18 -12 6 -19 17 96 17 182 -1 349 5 474 32 580 16 67
39 74 50 15 3 -22 10 -113 14 -203 5 -120 11 -167 21 -178 20 -19 27 -18 60
10 l28 24 0 354 c0 350 0 353 -22 376 -12 12 -27 22 -33 22 -17 0 -50 -39 -50
-58 0 -22 -37 -59 -47 -48 -4 4 -13 60 -19 124 -7 64 -17 135 -23 157 -6 22
-13 52 -16 67 -4 20 -12 27 -33 30 l-27 3 2 90 c1 50 1 144 1 210 -1 219 0
927 1 1138 1 170 4 215 17 240 15 28 15 33 0 58 -19 32 -18 12 -13 514 2 193
9 436 15 540 6 105 14 579 17 1055 4 475 8 867 10 870 2 3 6 322 9 710 4 388
12 755 17 815 6 61 13 337 14 615 4 686 15 1298 24 1340 4 19 6 87 4 150 -7
190 -4 251 18 300 17 39 18 50 8 90 -8 32 -9 78 -3 155 5 61 5 157 1 215 -6
71 -5 141 4 217 9 86 9 121 0 155 -8 30 -9 64 -3 113 9 68 1 282 -11 302 -7
11 9 268 19 301 l6 22 -5969 0 -5970 0 -6 -55 c-3 -30 -1 -70 4 -87 5 -18 9
-81 9 -139 0 -58 3 -140 6 -182 7 -76 7 -77 35 -77 22 0 29 -5 29 -20 0 -17 7
-20 40 -20 22 0 40 -4 40 -10 0 -5 9 -10 20 -10 13 0 20 -7 20 -20 0 -13 7
-20 20 -20 13 0 20 -7 20 -20 0 -13 7 -20 20 -20 13 0 20 -7 20 -20 0 -13 7
-20 20 -20 13 0 20 -7 20 -20 0 -13 7 -20 20 -20 13 0 20 -7 20 -20 0 -16 -7
-20 -37 -21 -153 -2 -244 -9 -283 -22 -25 -9 -81 -21 -125 -27 -103 -15 -196
-42 -320 -92 -55 -22 -118 -47 -140 -55 -98 -36 -145 -65 -145 -89 0 -7 65
-79 143 -159 79 -80 161 -170 183 -201 21 -31 55 -74 75 -97 36 -41 115 -165
154 -240 33 -62 72 -59 116 9 13 21 33 51 44 69 43 67 118 151 149 165 39 18
116 101 116 124 0 11 -17 25 -45 37 -76 34 -79 71 -10 118 51 34 104 46 139
30 14 -7 26 -16 26 -21 0 -27 104 17 161 69 31 28 151 63 218 63 27 0 105 7
172 16 151 20 347 16 399 -8 79 -36 126 -53 150 -55 98 -8 262 -36 295 -50 22
-10 60 -36 85 -59 25 -23 62 -47 83 -54 21 -6 64 -36 95 -67 31 -30 75 -66 97
-80 44 -29 53 -39 92 -98 14 -22 46 -64 71 -93 65 -77 141 -195 188 -292 107
-219 135 -284 150 -342 8 -35 24 -87 35 -116 10 -29 19 -62 19 -74 0 -11 13
-59 30 -107 16 -47 34 -128 40 -179 6 -51 15 -112 20 -135 13 -56 32 -177 32
-202 0 -11 4 -73 9 -139 10 -144 19 -162 84 -168 44 -3 45 -3 45 27 0 61 44
83 106 54 21 -10 48 -18 60 -19 11 0 24 -3 28 -7 9 -10 78 -33 98 -33 30 0
106 -42 118 -65 10 -19 7 -32 -28 -92 -21 -38 -42 -82 -46 -98 -4 -16 -21 -49
-37 -73 -16 -23 -29 -47 -29 -51 0 -4 -9 -16 -21 -27 -16 -15 -24 -16 -39 -6
-11 7 -32 12 -47 12 -16 0 -42 9 -59 19 -34 21 -42 42 -54 161 -17 154 -47
232 -47 118 1 -65 -11 -215 -19 -256 -4 -19 -10 -23 -32 -21 -48 5 -52 -4 -52
-124 0 -62 -7 -179 -15 -262 -8 -82 -19 -229 -25 -325 -6 -96 -15 -195 -19
-220 -5 -25 -17 -85 -26 -135 -9 -49 -22 -126 -30 -170 -8 -44 -15 -100 -15
-125 0 -25 -4 -61 -9 -80 -5 -19 -16 -82 -26 -140 -18 -116 -26 -136 -48 -134
-12 1 -15 -12 -13 -70 0 -39 -2 -90 -6 -113 -8 -41 -8 -41 40 -69 26 -15 61
-38 77 -51 17 -13 35 -27 40 -31 6 -4 55 -29 110 -57 162 -80 253 -144 454
-317 40 -34 96 -83 125 -107 78 -66 186 -175 186 -187 0 -6 12 -21 26 -35 14
-13 34 -41 45 -61 23 -45 59 -82 85 -86 10 -2 24 -10 29 -19 26 -41 57 -71 78
-77 33 -8 141 -191 132 -224 -5 -22 -4 -23 24 -17 38 8 60 -15 122 -125 24
-41 55 -89 70 -107 15 -17 45 -69 67 -115 21 -45 49 -103 61 -128 12 -25 30
-59 40 -76 29 -47 122 -252 132 -288 4 -17 19 -65 33 -106 30 -91 103 -369
116 -436 4 -27 16 -74 25 -104 44 -151 65 -311 85 -645 10 -171 -2 -403 -30
-555 -5 -30 -16 -91 -24 -135 -8 -44 -18 -110 -22 -148 -3 -37 -10 -67 -14
-67 -5 0 -12 -10 -16 -22 -3 -13 -13 -30 -20 -39 -8 -9 -16 -40 -18 -70 -2
-30 -9 -73 -15 -96 -12 -42 -19 -48 -68 -46 -7 1 -13 -7 -13 -18 0 -10 -9 -24
-21 -33 -25 -17 -22 -52 4 -48 9 2 17 -2 17 -8 0 -5 -6 -10 -14 -10 -19 0 -17
-41 3 -56 24 -18 7 -84 -29 -112 -17 -13 -42 -46 -55 -73 -25 -48 -26 -49 -71
-49 -29 0 -61 -8 -85 -22 -32 -18 -45 -20 -81 -12 l-43 9 -3 78 c-2 62 0 77
12 77 15 0 29 -27 20 -41 -3 -5 16 -9 43 -9 43 0 51 4 76 35 24 30 34 35 71
35 32 0 46 -5 51 -17 12 -29 43 53 44 114 1 67 -24 75 -82 25 -12 -11 -34 -15
-72 -13 -57 3 -95 -11 -95 -33 0 -14 -21 -26 -45 -26 -8 0 -43 27 -78 60 -36
33 -70 60 -76 60 -6 0 -27 33 -47 73 -20 39 -46 85 -58 102 -12 18 -22 49 -24
78 -4 63 -28 156 -46 176 -10 11 -15 52 -18 136 -4 96 -9 128 -26 161 -20 39
-20 51 -16 340 2 164 8 317 14 339 15 61 12 222 -6 290 -29 113 -29 114 1 125
22 8 26 15 23 41 -2 25 -12 36 -48 56 -26 15 -64 26 -89 28 -35 1 -49 8 -72
33 -24 27 -28 39 -25 79 4 60 32 120 69 147 34 25 48 14 56 -45 3 -23 13 -45
21 -49 8 -3 43 -21 77 -38 75 -39 91 -40 103 -6 14 36 1 54 -75 105 -47 31
-68 52 -73 73 -7 25 -16 34 -51 53 -5 3 23 63 30 63 4 0 10 -12 13 -26 6 -24
8 -25 29 -11 12 8 22 22 22 32 0 31 -109 58 -143 36 -8 -4 -19 -19 -26 -32
-20 -41 -59 -37 -96 9 -29 36 -35 39 -69 35 -32 -4 -41 -1 -55 18 -29 42 -15
119 21 119 9 0 28 11 42 24 38 35 64 40 91 16 18 -16 21 -23 12 -32 -19 -19
-14 -53 11 -76 32 -30 62 -30 53 1 -18 59 -37 204 -38 295 -1 41 3 57 20 75
30 31 28 49 -8 69 -17 9 -30 25 -30 36 0 20 -39 62 -58 62 -6 0 -21 -13 -34
-30 -28 -38 -53 -38 -73 0 -28 55 -12 102 40 112 28 5 31 48 6 78 -41 51 -55
60 -74 54 -23 -7 -67 14 -67 33 0 7 -9 39 -20 70 -11 32 -20 73 -20 91 0 20
-9 46 -23 63 -12 16 -47 61 -77 100 -30 40 -71 91 -91 113 -19 23 -59 90 -89
150 -29 60 -72 133 -95 161 -51 62 -65 87 -65 114 0 11 -9 22 -20 26 -11 4
-31 28 -44 53 -13 26 -35 58 -49 71 -22 20 -24 27 -16 50 5 14 12 32 14 40 4
10 9 10 18 3 7 -6 33 -14 57 -18 25 -4 57 -13 72 -20 15 -8 37 -14 50 -14 24
-1 90 -55 101 -84 4 -9 10 -15 14 -14 4 1 34 -11 65 -27 32 -16 60 -27 62 -24
16 15 -11 52 -53 74 -26 13 -72 49 -103 79 -31 31 -60 56 -65 56 -5 0 -26 18
-47 39 -22 22 -63 50 -92 62 -30 12 -54 25 -54 29 0 15 -111 114 -153 136 -92
50 -244 107 -287 109 -92 5 -169 32 -345 123 -60 31 -136 75 -167 99 -35 27
-75 47 -105 54 -26 5 -64 14 -83 19 -19 5 -64 16 -100 25 -36 9 -105 22 -155
29 -49 6 -105 20 -124 29 -19 9 -49 17 -68 17 -37 0 -93 24 -93 40 0 13 10 13
60 -5 23 -8 68 -15 99 -16 31 0 97 -11 146 -25 50 -14 108 -27 131 -28 22 -2
54 -11 72 -20 17 -9 41 -16 54 -16 13 0 59 -11 103 -24 44 -14 114 -35 155
-47 41 -13 102 -35 135 -50 33 -14 77 -29 98 -33 48 -9 97 1 97 19 0 7 17 19
38 26 50 17 100 50 106 72 2 9 1 30 -3 45 l-8 27 -20 -32 c-11 -18 -23 -30
-26 -26 -23 23 19 73 61 73 15 0 44 -9 65 -20 l39 -21 -19 31 c-10 17 -58 71
-106 120 -49 49 -86 93 -83 98 9 15 73 -3 115 -32 60 -42 64 -38 61 41 -1 28
4 49 15 59 17 17 16 19 -35 101 -23 37 1 54 72 52 71 -3 87 9 63 45 -16 24
-16 37 -6 136 11 103 25 160 41 160 8 0 37 84 45 132 4 24 -2 69 -16 125 -18
73 -22 119 -22 273 0 102 5 233 12 291 27 218 -18 670 -80 809 -7 14 -17 50
-25 80 -25 112 -57 208 -100 301 -24 53 -44 101 -44 107 0 26 -98 172 -157
234 -34 36 -63 71 -63 76 0 15 -98 69 -145 81 -22 5 -49 12 -60 16 -13 4 -30
-1 -48 -15 -22 -17 -27 -29 -25 -61 2 -50 -10 -63 -45 -50 -37 14 -38 62 -2
85 29 19 33 56 7 78 -19 17 -137 45 -227 53 -33 4 -91 13 -130 20 -103 20
-211 28 -233 16 -11 -6 -32 -37 -48 -70 -29 -61 -49 -78 -94 -83 -17 -2 -24 1
-22 11 2 7 -4 21 -12 30 -12 14 -13 24 -5 54 5 20 14 39 19 42 6 4 10 13 10
21 0 12 -18 14 -107 12 -89 -3 -117 -8 -157 -27 -40 -20 -54 -22 -76 -14 -27
10 -28 10 -34 -35 -3 -25 -18 -69 -33 -98 -23 -45 -33 -55 -60 -60 -22 -4 -39
-16 -53 -39 -11 -18 -36 -45 -56 -60 -19 -15 -46 -45 -60 -67 -20 -31 -28 -38
-35 -27 -18 29 -9 96 22 157 17 34 29 72 27 84 -3 20 -8 23 -43 20 -66 -5 -71
-9 -45 -37 26 -28 26 -27 -15 -41 -18 -6 -35 -21 -44 -39 -7 -17 -24 -46 -36
-66 -21 -33 -29 -37 -77 -41 -71 -6 -130 -35 -142 -71 -11 -29 7 -92 47 -172
12 -24 19 -55 18 -78 -1 -21 2 -43 7 -50 5 -7 14 -38 21 -69 7 -31 21 -68 32
-82 13 -16 18 -33 14 -48 -4 -16 1 -33 15 -50 19 -25 22 -26 48 -12 15 7 36
14 47 14 11 0 28 9 38 20 19 23 25 23 202 20 79 -1 146 -7 170 -16 22 -7 57
-14 77 -14 45 0 142 -41 151 -64 5 -12 20 -16 59 -16 31 0 68 -7 87 -18 30
-15 38 -27 57 -87 13 -38 23 -77 23 -85 1 -8 10 -32 21 -53 18 -33 20 -56 20
-236 0 -124 -4 -202 -10 -206 -6 -3 -18 8 -28 25 -19 36 -86 110 -99 110 -4 0
-30 16 -57 35 -28 20 -62 35 -77 35 -15 0 -31 5 -34 10 -3 6 -32 10 -63 10
-31 0 -93 5 -137 11 -66 9 -88 9 -124 -3 -41 -14 -43 -17 -46 -57 -2 -24 -10
-50 -18 -59 -8 -10 -18 -27 -21 -38 -7 -22 -61 -52 -73 -40 -3 3 1 14 10 24
10 10 17 23 17 29 0 6 7 16 15 23 8 7 15 22 15 33 0 11 7 28 15 37 13 14 14
26 6 59 -5 24 -12 45 -14 48 -3 3 -51 7 -106 10 l-100 4 -15 -29 c-23 -44 -23
-97 -1 -122 17 -19 18 -24 6 -53 -8 -18 -18 -81 -22 -142 -24 -299 -29 -371
-43 -640 -9 -159 -20 -308 -26 -330 -5 -22 -21 -94 -35 -160 -26 -126 -45
-200 -91 -350 -15 -49 -29 -102 -31 -117 -3 -15 -11 -33 -19 -39 -8 -6 -14
-26 -14 -43 0 -29 64 -216 116 -336 13 -30 26 -71 30 -90 11 -57 51 -127 76
-133 54 -14 119 -67 138 -113 26 -60 25 -64 -8 -64 -32 0 -56 -22 -66 -60 -20
-73 -44 -85 -101 -51 -28 17 -30 22 -35 95 -5 78 -5 78 -24 57 -11 -11 -27
-21 -36 -21 -9 0 -21 -5 -27 -11 -9 -9 -18 -8 -35 4 -50 35 -58 46 -87 111
-37 80 -89 159 -101 151 -5 -3 -14 -24 -20 -45 -6 -22 -14 -40 -18 -40 -5 0
-18 -9 -30 -20 -18 -17 -22 -32 -22 -83 0 -72 -4 -77 -92 -121 -32 -16 -60
-37 -63 -47 -9 -27 -78 -46 -118 -31 -18 6 -63 14 -102 18 -38 4 -87 13 -108
20 -45 16 -127 85 -142 118 -17 39 -214 235 -238 237 -23 1 -72 36 -75 52 -5
25 26 21 87 -13 30 -17 60 -30 67 -30 7 0 57 -23 111 -51 54 -28 136 -62 183
-76 47 -14 111 -40 143 -59 47 -28 59 -31 63 -19 10 26 -6 103 -32 148 -29 51
-32 87 -6 87 40 0 63 -14 77 -46 12 -29 16 -32 42 -25 22 6 27 13 25 31 -2 13
9 40 28 66 29 41 31 47 24 102 -8 71 2 90 81 153 30 24 55 51 55 60 0 31 -41
109 -63 120 -12 7 -25 17 -29 23 -13 19 -8 106 7 136 13 26 21 30 56 30 49 0
89 35 89 78 0 15 4 32 8 37 5 6 14 28 20 50 27 96 55 213 60 244 3 22 11 35
23 38 16 5 19 15 20 67 0 33 5 86 10 116 5 30 14 89 19 130 6 41 15 97 21 125
7 27 13 95 13 151 1 56 7 108 12 115 12 16 31 180 39 345 4 78 2 132 -9 185
-8 41 -20 110 -27 154 -7 44 -23 101 -36 127 -27 56 -29 80 -7 113 21 32 7 68
-48 132 -44 51 -46 61 -18 96 24 30 25 60 5 142 -8 33 -15 79 -15 103 0 24
-11 71 -24 105 -13 34 -27 77 -31 96 -19 92 -149 340 -217 416 -32 35 -58 68
-58 74 0 6 -13 25 -28 43 -16 18 -54 71 -86 118 -31 47 -80 113 -109 147 -28
34 -65 81 -82 104 -16 23 -67 80 -112 127 -46 46 -83 88 -83 93 0 18 -75 91
-111 110 -26 13 -59 19 -104 19 -82 0 -115 25 -115 88 0 21 -7 61 -15 87 -11
37 -11 52 -3 63 21 25 70 44 117 44 25 0 49 5 53 11 11 18 -376 204 -463 222
-51 11 -81 24 -106 45 -18 17 -38 30 -44 30 -5 0 -26 11 -47 24 -21 13 -58 26
-82 29 -104 14 -126 21 -168 55 l-44 36 7 183 8 183 -328 0 -327 0 7 -37 c4
-21 11 -77 15 -125 5 -48 11 -92 14 -97 10 -16 -27 -18 -79 -3 -74 20 -136 30
-272 41 -72 6 -134 16 -152 26 -17 8 -74 20 -128 25 -131 14 -160 20 -174 36
-6 8 -22 14 -34 14 -26 0 -39 40 -29 90 l6 30 -357 0 -357 0 6 -122 c4 -67 10
-126 14 -132 3 -6 9 -31 13 -56 4 -25 14 -76 24 -115 22 -92 32 -157 45 -284
5 -57 14 -109 18 -115 5 -6 10 -31 11 -55 1 -24 7 -53 12 -64 6 -10 15 -112
19 -225 21 -482 30 -585 65 -688 15 -44 25 -97 25 -130 0 -30 6 -67 14 -82 7
-15 19 -57 26 -94 12 -59 12 -69 -3 -92 -19 -29 -21 -72 -6 -131 5 -22 11 -53
13 -70 6 -44 26 -118 36 -130 4 -5 11 -28 15 -50 4 -22 11 -51 16 -65 10 -28
28 -142 33 -210 2 -25 11 -76 21 -114 14 -54 16 -90 11 -175 -9 -136 -9 -168
-1 -212 4 -23 3 -39 -4 -43 -14 -9 -14 -48 1 -80 9 -21 8 -29 -6 -45 -13 -15
-14 -20 -4 -29 24 -19 13 -249 -22 -497 -12 -82 -25 -180 -30 -217 -5 -37 -19
-86 -30 -109 -16 -30 -21 -59 -21 -107 0 -60 6 -78 50 -168 50 -103 69 -126
229 -289 79 -80 121 -113 173 -137 40 -18 59 -43 59 -80 0 -13 22 -68 50 -123
33 -67 51 -118 55 -155 4 -30 13 -70 22 -88 8 -18 15 -60 16 -93 2 -50 -1 -63
-19 -77 -11 -9 -31 -42 -43 -74 -23 -57 -69 -119 -128 -171 -18 -16 -33 -34
-33 -39 0 -6 -18 -32 -41 -59 l-41 -49 -81 0 c-115 0 -138 11 -169 79 -15 31
-29 74 -32 97 -6 44 -50 131 -76 151 -8 7 -34 13 -58 13 -27 0 -64 11 -102 30
-33 17 -66 30 -74 30 -27 0 -43 28 -49 87 -4 32 -16 85 -27 118 -12 33 -28 94
-36 135 -8 41 -19 84 -24 95 -13 30 -18 172 -8 219 6 22 17 57 26 76 13 27 17
78 20 227 4 169 2 198 -14 240 -16 41 -19 76 -18 253 1 171 4 210 17 235 9 17
17 39 17 51 0 11 7 29 15 40 17 22 20 80 5 89 -6 4 -10 23 -9 43 1 21 -6 54
-18 77 -19 38 -21 64 -26 524 -4 293 -10 488 -16 495 -6 7 -13 43 -17 81 -4
39 -15 87 -25 107 -11 21 -19 56 -19 78 0 23 -5 50 -11 61 -6 12 -10 112 -11
257 0 184 -4 241 -14 257 -11 15 -14 63 -14 203 0 163 -2 187 -20 222 -11 22
-20 46 -20 55 0 8 -9 32 -20 52 -18 33 -20 57 -20 203 -1 125 -5 175 -16 205
-34 87 -57 185 -67 288 -8 92 -12 107 -27 107 -15 0 -18 8 -17 48 2 49 -9 94
-50 200 -17 45 -26 92 -29 155 -3 51 -7 107 -10 125 l-5 32 -2650 0 -2650 0 5
-2442z m2246 2332 c0 -5 -4 -10 -10 -10 -5 0 -10 5 -10 10 0 6 5 10 10 10 6 0
10 -4 10 -10z m-33 -26 c14 -13 14 -17 2 -25 -9 -6 -10 -12 -4 -16 16 -12 16
-33 1 -33 -7 0 -20 -14 -27 -32 -7 -18 -20 -40 -29 -49 -8 -9 -22 -27 -31 -39
-31 -40 -97 -29 -107 19 -12 62 -13 89 -3 95 6 4 11 15 11 26 0 11 10 20 25
24 14 4 25 13 25 22 0 11 4 13 16 6 9 -5 25 -7 35 -5 11 3 19 0 19 -6 0 -6 9
-11 20 -11 13 0 20 7 20 20 0 24 6 25 27 4z m5553 -349 c36 -19 66 -73 44 -82
-36 -14 -104 28 -104 65 0 17 8 26 28 31 2 1 16 -6 32 -14z m-5743 -133 c9 -6
14 -65 18 -207 6 -212 -3 -290 -35 -336 -10 -14 -31 -52 -47 -85 l-30 -59 -7
-255 c-5 -212 -3 -292 14 -475 11 -121 24 -240 30 -265 15 -66 18 -86 25 -180
3 -46 19 -136 36 -200 17 -63 37 -162 44 -220 8 -58 25 -148 40 -200 14 -52
30 -130 35 -173 7 -55 24 -114 56 -194 25 -63 50 -140 54 -171 5 -34 29 -103
60 -171 28 -63 54 -130 57 -150 3 -20 25 -77 49 -128 65 -135 60 -212 -17
-269 -51 -37 -124 -34 -177 9 -55 43 -107 152 -121 249 -6 40 -24 107 -40 148
-16 41 -32 102 -36 135 -9 69 -22 100 -59 134 -14 14 -26 30 -26 37 0 6 -6 34
-14 60 -14 48 -22 88 -47 229 -6 39 -22 93 -34 120 -46 103 -59 152 -65 255
-4 59 -14 120 -22 140 -9 19 -18 67 -21 105 -4 39 -13 93 -21 120 -11 35 -16
94 -16 198 0 88 -4 157 -11 169 -6 11 -12 67 -14 124 -3 81 -8 108 -21 121
-26 26 -14 145 22 212 18 36 28 72 31 114 3 53 12 138 37 337 2 19 7 46 11 60
3 14 11 90 17 170 l11 145 64 127 c36 71 69 131 74 134 6 3 7 14 4 25 -4 11
-2 19 5 19 7 0 9 8 5 19 -6 19 -3 21 60 29 6 1 16 -2 22 -6z m8745 -204 c35
-13 27 -28 -15 -28 -36 0 -81 26 -71 41 6 11 39 6 86 -13z m266 -64 c18 -8 32
-17 32 -20 0 -4 -83 4 -120 13 l-25 6 25 7 c39 12 55 11 88 -6z m-4321 -1119
c21 -8 102 -19 181 -24 78 -6 151 -15 161 -21 11 -5 48 -10 84 -10 35 0 89 -5
120 -11 l57 -12 1 -151 c1 -83 4 -218 8 -300 l6 -148 -23 -9 c-13 -5 -40 -9
-61 -9 -47 0 -167 -36 -203 -61 -14 -11 -31 -19 -37 -19 -11 0 -50 -24 -125
-77 -22 -16 -77 -75 -123 -133 -141 -179 -141 -179 -198 -59 l-37 80 3 462 c3
491 4 501 51 510 49 9 99 6 135 -8z m4411 -60 c2 -21 -13 -53 -22 -44 -3 3 -9
20 -12 38 -6 29 -4 33 12 29 10 -2 20 -12 22 -23z m-73 -32 c33 -37 34 -73 1
-73 -26 0 -86 52 -86 74 0 36 51 35 85 -1z m-3015 -228 c37 -36 76 -84 86
-106 18 -41 18 -42 -3 -103 -12 -33 -29 -113 -38 -176 -24 -178 -25 -180 -41
-180 -20 0 -107 45 -122 63 -7 8 -31 22 -54 31 -24 10 -56 25 -73 33 -30 16
-56 23 -155 44 -96 20 -98 22 -55 47 44 26 43 27 181 -39 88 -43 106 -48 123
-37 11 6 23 21 28 32 5 12 8 113 7 226 0 120 3 210 9 218 18 23 39 12 107 -53z
m-1915 5 c3 -5 1 -10 -4 -10 -6 0 -11 5 -11 10 0 6 2 10 4 10 3 0 8 -4 11 -10z
m23 -97 c2 -8 -5 -13 -17 -13 -21 0 -35 13 -24 24 10 10 36 3 41 -11z m-9 -37
c15 -18 27 -86 15 -86 -16 0 -57 69 -50 85 7 19 20 19 35 1z m4904 -124 c17
-19 47 -94 47 -118 0 -34 -32 -9 -61 47 -37 75 -29 119 14 71z m-758 -114 c14
-6 25 -15 25 -19 0 -6 -55 16 -69 28 -10 8 20 2 44 -9z m-2740 -268 c-3 -5
-13 -10 -21 -10 -8 0 -12 5 -9 10 3 6 13 10 21 10 8 0 12 -4 9 -10z m7781 -28
c-9 -9 -37 8 -31 18 5 8 11 7 21 -1 8 -6 12 -14 10 -17z m1869 -10 c91 -46
153 -95 201 -159 73 -96 90 -136 104 -238 6 -49 18 -121 26 -160 7 -38 16
-140 18 -225 6 -174 25 -490 30 -499 5 -8 23 -535 36 -1066 16 -658 19 -715
35 -800 8 -44 15 -112 15 -151 0 -42 7 -87 16 -109 12 -30 14 -56 9 -119 -6
-70 -5 -84 10 -96 24 -20 41 -58 55 -123 10 -51 9 -64 -8 -115 -11 -31 -23
-74 -27 -94 -6 -31 -13 -39 -43 -49 -19 -6 -55 -29 -78 -51 -29 -27 -50 -39
-66 -36 -20 3 -23 8 -22 48 1 25 5 62 9 83 5 26 4 46 -5 62 -11 20 -11 32 0
65 11 33 11 52 0 108 -13 72 -11 128 13 271 15 90 13 121 -8 121 -8 0 -23 12
-34 26 -23 29 -29 102 -10 121 17 17 17 53 1 97 -8 21 -15 59 -15 85 1 79 13
205 21 211 4 3 13 12 20 21 11 14 10 20 -4 34 -16 15 -16 24 -6 74 12 54 12
57 -13 78 -23 20 -25 29 -25 97 0 41 5 87 12 101 9 19 9 40 0 87 -10 56 -10
66 10 105 l21 43 -23 70 c-21 63 -22 74 -10 110 10 30 10 46 2 63 -6 12 -13
63 -16 112 -4 50 -11 135 -16 190 -5 55 -9 133 -10 173 0 40 -5 82 -11 93 -8
16 -7 25 6 39 16 17 15 20 -3 38 -27 27 -42 56 -42 82 0 12 -7 28 -15 36 -11
11 -13 33 -9 103 4 60 1 115 -9 168 -9 43 -19 100 -22 127 -4 28 -15 72 -26
98 -10 27 -19 60 -19 74 0 13 -6 35 -14 47 -8 12 -17 41 -21 64 -4 23 -13 47
-21 54 -24 20 -17 65 17 103 33 39 35 69 4 74 -11 1 -37 8 -57 14 -32 9 -38
16 -38 39 0 50 60 64 118 29 31 -19 39 -17 24 7 -11 18 -155 123 -168 123 -6
0 -17 7 -25 16 -30 36 39 40 106 6z m-1911 -96 c5 -19 22 -30 78 -52 40 -16
87 -36 103 -46 17 -10 42 -18 56 -18 15 0 37 -12 53 -29 15 -16 40 -31 54 -34
15 -3 44 -17 64 -31 20 -13 52 -26 70 -28 24 -2 38 -11 53 -35 11 -18 32 -36
46 -41 14 -6 37 -21 50 -34 13 -13 45 -33 72 -43 27 -12 50 -28 53 -40 4 -11
42 -56 84 -100 43 -44 90 -102 104 -129 14 -27 30 -54 36 -61 24 -29 67 -154
62 -184 -3 -20 1 -38 11 -49 9 -9 21 -44 26 -77 18 -101 27 -141 36 -155 13
-21 56 -267 81 -460 30 -237 33 -266 49 -460 13 -160 15 -289 11 -718 -3 -288
-10 -556 -15 -595 -6 -40 -14 -97 -17 -128 -3 -31 -11 -65 -18 -75 -12 -16
-17 -15 -80 19 -37 20 -77 37 -90 37 -13 0 -41 6 -62 13 -25 9 -50 11 -69 6
-23 -7 -33 -4 -47 11 -11 11 -21 20 -25 20 -3 0 -51 7 -107 15 -55 8 -123 16
-150 17 -29 2 -51 8 -54 16 -2 6 3 12 12 12 9 0 16 3 16 8 0 11 -96 62 -118
62 -12 0 -24 5 -27 10 -3 6 -17 10 -31 10 -13 0 -49 13 -80 30 -43 23 -59 27
-73 18 -13 -8 -28 -5 -63 10 -38 18 -51 20 -84 11 -21 -6 -45 -16 -52 -21 -15
-13 -70 -3 -91 16 -11 9 -60 16 -146 20 -189 10 -209 12 -325 29 -58 9 -105
16 -106 16 0 1 -1 56 -2 123 -1 83 -7 137 -18 171 -13 38 -15 68 -10 128 4 54
3 78 -5 81 -7 2 -15 49 -20 123 -9 147 -1 577 13 625 5 19 16 119 23 221 7
102 17 194 22 205 6 10 13 82 17 158 4 105 10 146 23 165 10 15 18 54 21 97 4
69 6 73 33 84 47 20 139 -8 217 -67 37 -28 41 -52 12 -78 -11 -10 -20 -24 -20
-31 0 -7 -14 -29 -30 -48 -57 -64 -116 -226 -127 -345 -5 -55 -3 -72 5 -67 7
4 12 13 12 20 0 7 13 22 29 34 25 18 30 19 35 6 9 -23 7 -120 -4 -199 -11 -75
-31 -112 -73 -133 -31 -15 -47 -77 -47 -185 0 -40 -5 -124 -12 -187 -6 -63
-10 -169 -9 -235 3 -109 1 -123 -18 -147 -23 -29 -27 -68 -10 -85 6 -6 14 -51
16 -100 5 -92 28 -165 57 -176 12 -5 16 -21 16 -61 0 -30 3 -57 8 -60 4 -2 95
-7 202 -10 193 -5 330 -23 398 -52 19 -8 52 -14 73 -14 21 0 41 -4 44 -10 3
-5 27 -10 53 -10 35 0 58 -7 86 -26 26 -18 66 -32 117 -40 43 -8 95 -24 116
-36 26 -14 54 -21 88 -21 58 1 81 -8 45 -18 -16 -4 -2 -6 35 -6 37 0 81 -9
115 -22 72 -27 110 -28 110 -1 0 11 -4 20 -9 20 -5 0 4 24 19 53 15 29 30 74
34 101 4 27 18 72 31 100 61 137 63 152 25 185 -10 9 -21 31 -25 49 -6 31 -5
32 25 32 l32 0 -8 43 c-4 23 -6 51 -5 62 1 11 3 129 4 262 2 191 5 245 16 255
11 10 14 10 18 1 3 -7 13 -23 23 -35 l19 -23 1 42 c0 23 -4 44 -8 47 -5 3 -12
52 -16 108 -17 263 -45 486 -70 568 -8 25 -17 78 -20 118 -3 48 -14 92 -30
129 -15 30 -26 63 -26 71 0 9 -12 33 -26 54 -17 24 -29 57 -32 86 -3 35 -12
58 -33 82 -16 18 -29 42 -29 54 0 34 -47 94 -91 117 -35 18 -40 24 -35 45 6
21 -4 36 -59 93 -47 49 -77 71 -108 80 -65 20 -108 40 -147 70 -30 24 -47 29
-115 33 -44 3 -97 13 -118 22 -21 8 -67 19 -103 22 -55 6 -67 4 -85 -12 -21
-19 -22 -19 -36 4 -18 26 -30 28 -55 5 -23 -21 -23 -54 1 -85 l20 -24 -32 -16
c-18 -9 -52 -19 -77 -22 -25 -3 -78 -16 -119 -30 -40 -14 -99 -28 -130 -32
-54 -6 -182 -62 -196 -84 -4 -6 -18 -15 -31 -20 -13 -5 -32 -26 -44 -47 -11
-21 -29 -53 -40 -71 -26 -43 -126 -344 -140 -423 -7 -35 -18 -93 -25 -129 -8
-36 -17 -85 -20 -110 -3 -25 -8 -63 -11 -85 -13 -86 -24 -468 -18 -616 6 -167
58 -543 92 -664 10 -38 27 -106 36 -150 20 -90 52 -224 89 -365 14 -52 30
-132 37 -178 12 -76 14 -83 39 -88 106 -24 135 -42 145 -91 6 -24 2 -37 -17
-59 -14 -16 -30 -47 -35 -68 -14 -48 -50 -101 -79 -117 -14 -8 -23 -22 -23
-36 0 -15 -8 -27 -22 -32 -29 -11 -51 5 -39 27 6 10 4 24 -6 39 -12 19 -13 26
-3 38 10 12 10 19 -2 33 -8 9 -20 33 -27 51 -14 42 -4 55 49 68 33 9 35 12 38
57 2 32 0 46 -7 41 -6 -3 -11 -14 -11 -24 0 -20 -37 -58 -60 -61 -27 -4 -40 0
-40 11 0 6 -9 22 -20 36 -11 14 -20 35 -20 47 0 12 -11 37 -25 56 -14 19 -25
43 -25 54 -1 12 -7 32 -15 46 -8 14 -15 43 -15 65 0 22 -7 49 -15 59 -8 11
-15 37 -15 59 0 21 -6 44 -13 52 -8 8 -17 49 -21 100 -3 47 -13 100 -22 117
-18 35 -25 89 -28 220 -1 80 -4 89 -29 116 -28 29 -34 51 -17 68 12 12 14 67
5 229 -3 72 -7 159 -9 195 -3 60 -24 121 -47 135 -16 11 -5 208 16 276 3 9 -6
28 -20 43 -23 25 -32 46 -20 46 3 0 24 -9 45 -20 l40 -20 1 57 c1 32 3 74 6
93 12 105 9 131 -20 154 -25 20 -27 28 -27 89 0 38 7 84 15 104 18 42 19 96 3
122 -9 15 -7 25 11 55 14 21 21 45 18 57 -4 13 2 27 14 37 14 12 19 29 19 62
0 25 7 99 16 165 8 65 14 130 12 145 -1 15 7 38 20 54 12 16 22 33 22 37 0 5
11 32 25 61 14 28 25 58 25 65 0 7 9 22 21 34 12 12 26 48 34 85 7 36 21 76
29 89 22 33 20 55 -3 55 -11 0 -22 4 -26 9 -9 15 34 33 61 27 32 -8 41 14 24
63 -11 33 -10 42 9 79 12 23 27 42 34 42 7 0 30 9 52 20 22 11 48 20 58 20 10
0 27 5 38 11 11 6 67 10 124 10 58 0 107 4 110 9 7 12 163 11 171 -1 3 -5 27
-9 55 -9 37 0 49 4 49 15 0 24 27 17 34 -9z m182 -2 c13 -19 14 -28 5 -37 -8
-8 -11 -7 -11 5 0 8 -7 21 -15 28 -8 7 -15 16 -15 21 0 18 20 8 36 -17z
m-8876 -74 c27 -14 19 -70 -25 -170 -65 -147 -75 -142 -64 28 8 139 30 174 89
142z m1095 -65 c0 -42 -34 -165 -60 -215 -8 -16 -24 -64 -35 -107 -11 -43 -31
-121 -45 -173 -14 -52 -34 -162 -45 -245 -12 -82 -27 -188 -35 -235 -31 -184
-48 -327 -46 -375 7 -116 2 -395 -7 -411 -7 -13 -12 -7 -26 31 -9 27 -16 58
-16 68 0 11 -8 29 -17 40 -15 16 -18 35 -15 101 1 44 7 93 13 108 7 16 8 50 4
85 -11 97 -10 176 3 208 20 52 35 198 27 261 -13 103 -5 285 20 474 14 103 21
127 70 227 30 62 55 117 55 122 0 30 87 82 130 78 22 -2 25 -7 25 -42z m8314
-179 c19 -22 23 -76 6 -70 -18 7 -45 49 -45 69 0 19 24 20 39 1z m-5289 -66
c0 -17 -99 -112 -109 -105 -15 9 16 85 46 113 19 17 28 20 44 12 10 -6 19 -15
19 -20z m-2730 -28 c0 -22 -42 -70 -48 -54 -4 14 26 72 38 72 6 0 10 -8 10
-18z m7380 -212 c0 -19 -25 -34 -41 -24 -16 9 -10 42 9 47 23 5 32 -1 32 -23z
m90 -6 c0 -8 -9 -14 -20 -14 -22 0 -26 10 -8 28 13 13 28 7 28 -14z m-1182
-267 c14 -16 -8 -85 -33 -103 -12 -9 -16 -22 -13 -39 7 -33 -21 -31 -33 3 -7
17 -5 24 9 29 25 10 32 23 32 69 0 53 15 69 38 41z m-1690 -315 c4 -25 -13
-30 -22 -6 -9 25 -7 36 7 32 6 -3 13 -14 15 -26z m-1902 -247 c4 -8 3 -22 0
-30 -5 -14 -10 -13 -36 6 -22 17 -27 25 -18 31 21 13 48 9 54 -7z m-3738 -397
c2 -4 9 -8 15 -8 7 0 33 -11 59 -25 26 -14 64 -25 85 -25 22 0 54 -11 78 -25
22 -14 50 -25 62 -25 15 0 28 -10 38 -30 12 -24 22 -30 48 -30 24 0 28 3 17
10 -13 8 -12 10 3 10 9 0 17 8 17 18 0 9 9 28 19 41 l19 24 6 -21 c4 -12 4
-32 0 -44 -15 -46 -4 -92 29 -126 59 -61 175 -114 246 -113 13 1 36 -9 51 -22
15 -13 41 -29 58 -36 16 -7 32 -21 35 -32 3 -10 20 -27 39 -36 18 -10 98 -81
178 -159 80 -77 164 -152 186 -168 58 -38 299 -286 309 -316 4 -14 55 -76 114
-138 58 -62 113 -124 121 -137 9 -13 77 -86 152 -163 77 -79 147 -161 163
-191 18 -32 47 -65 77 -86 29 -21 55 -50 65 -73 9 -20 30 -68 48 -107 17 -38
37 -90 44 -115 7 -25 33 -88 57 -140 25 -52 56 -117 69 -145 13 -27 26 -63 30
-80 4 -16 38 -96 77 -177 38 -81 72 -167 75 -190 3 -24 12 -55 19 -70 8 -15
14 -40 14 -56 0 -16 9 -51 19 -78 23 -60 35 -105 56 -214 9 -47 20 -101 25
-120 9 -34 14 -55 44 -185 13 -57 20 -78 72 -225 16 -43 27 -106 34 -185 5
-66 14 -136 20 -155 17 -56 38 -304 50 -580 24 -604 22 -571 44 -606 17 -26
28 -33 54 -34 17 0 32 5 32 10 0 6 27 10 60 10 53 0 60 -2 60 -20 0 -14 7 -20
21 -20 18 0 20 -5 16 -27 -3 -15 0 -37 6 -50 9 -21 17 -23 81 -23 89 0 106 -9
82 -42 -9 -12 -27 -38 -41 -56 -13 -18 -45 -54 -72 -81 -26 -26 -54 -55 -61
-64 -9 -12 -28 -17 -67 -17 -29 0 -55 3 -58 8 -2 4 -2 1 0 -7 2 -8 -6 -20 -17
-28 -11 -8 -20 -25 -20 -38 0 -29 -61 -75 -98 -75 -55 0 -130 -31 -164 -68
-46 -50 -49 -56 -64 -126 -18 -87 -34 -146 -50 -184 -8 -18 -14 -40 -14 -48 0
-9 -6 -30 -14 -47 -8 -18 -20 -49 -26 -70 -7 -21 -18 -41 -26 -44 -9 -3 -14
-21 -14 -49 0 -103 -49 -226 -95 -238 -36 -10 -145 40 -145 66 0 6 -9 21 -20
35 -13 17 -20 41 -20 70 0 36 4 45 24 54 41 19 47 148 10 206 -8 12 -19 53
-24 90 -13 91 -14 92 -34 138 -10 22 -25 58 -33 80 -9 22 -22 47 -30 57 -12
14 -19 31 -22 59 -1 4 -25 18 -53 33 -68 33 -84 46 -92 72 -4 12 -20 27 -37
34 -16 7 -49 33 -73 57 -42 42 -47 44 -98 43 -75 -2 -78 -2 -78 14 0 8 -8 17
-19 21 -17 5 -19 20 -23 143 -3 79 -10 148 -18 163 -7 15 -30 35 -52 45 -22
10 -47 28 -55 41 -9 13 -21 23 -28 23 -16 0 -40 60 -50 124 -7 52 -33 116 -47
116 -4 0 -8 7 -8 15 0 8 5 15 10 15 19 0 11 55 -11 68 -14 9 -20 21 -17 41 1
16 -2 35 -8 42 -6 8 -19 34 -29 59 -10 25 -27 54 -37 66 -10 12 -24 49 -31 83
-7 34 -18 65 -24 69 -30 20 -35 53 -23 156 15 126 16 131 47 162 19 19 23 31
18 54 -4 17 -15 35 -25 40 -10 5 -24 27 -30 47 -7 21 -23 49 -35 63 -12 14
-35 47 -51 73 -16 26 -39 65 -51 85 -14 23 -23 53 -23 80 0 35 -3 42 -20 42
-12 0 -20 -7 -20 -16 0 -11 -5 -14 -16 -10 -9 3 -25 6 -37 7 -15 0 -17 2 -7 6
26 11 46 36 32 41 -6 2 -12 12 -12 23 0 10 -4 19 -8 19 -17 0 -52 38 -52 55 0
10 -7 23 -15 29 -10 7 -18 36 -22 78 -5 63 -4 69 18 87 13 11 29 19 36 16 12
-4 23 16 23 42 0 8 9 27 20 43 11 15 21 38 23 50 2 12 13 30 24 39 17 13 23
36 32 116 19 160 33 234 48 246 7 6 13 18 13 26 0 8 9 33 19 56 10 23 21 51
23 62 2 11 10 19 16 17 7 -1 12 5 12 14 0 19 -71 183 -117 272 -30 58 -33 71
-33 152 0 142 -29 222 -114 318 -18 20 -48 64 -66 97 -18 33 -41 69 -50 80
-49 56 -91 128 -80 135 6 4 -1 7 -17 8 -36 1 -83 19 -83 32 0 5 -19 13 -42 16
-22 4 -49 15 -59 25 -9 9 -25 19 -36 21 -12 2 -17 11 -14 23 2 11 5 43 8 70 2
28 10 55 17 60 7 6 13 12 14 15 0 3 4 13 8 23 11 29 -3 159 -21 194 -9 18 -25
35 -36 38 -10 4 -26 23 -35 43 -8 20 -20 39 -26 43 -6 4 -18 29 -27 55 -12 37
-28 58 -68 89 -43 34 -52 47 -58 83 -15 88 18 177 68 184 17 2 21 9 20 28 -9
107 -14 133 -30 155 -10 13 -27 25 -38 25 -11 0 -33 9 -50 20 -16 11 -40 20
-51 20 -42 0 -203 87 -227 123 -38 57 -101 108 -186 152 -50 26 -91 50 -91 54
0 15 35 49 55 53 26 6 79 -3 83 -14z m15400 2 c9 -5 51 -24 92 -43 65 -29 88
-47 171 -135 53 -55 112 -127 131 -160 105 -176 154 -540 113 -847 -7 -60 -18
-126 -24 -145 -6 -19 -13 -51 -16 -71 -5 -36 -52 -99 -73 -99 -14 0 -13 -8
-16 305 -2 249 -19 396 -57 495 -11 30 -25 73 -30 95 -21 85 -146 298 -238
405 -17 19 -31 40 -31 46 0 5 -14 23 -31 40 -49 47 -73 92 -59 109 14 17 42
19 68 5z m-21853 -78 c12 -12 45 -35 75 -50 30 -16 55 -33 55 -38 0 -5 12 -21
27 -36 33 -33 34 -34 8 -48 -25 -13 -70 -3 -64 15 4 10 -15 15 -78 20 -46 4
-93 5 -104 4 -12 -2 -28 2 -37 10 -10 7 -38 16 -65 18 -36 4 -54 13 -78 37
-36 38 -29 51 32 59 21 2 57 12 79 21 56 22 125 17 150 -12z m1103 -67 c29
-14 63 -25 76 -25 14 0 38 -11 54 -25 25 -21 40 -25 91 -25 50 0 74 -7 135
-37 53 -26 76 -43 78 -57 3 -19 12 -22 83 -27 105 -7 124 -16 113 -56 -3 -11
-62 -30 -76 -25 -7 2 -18 -1 -25 -7 -7 -5 -44 -15 -82 -21 -37 -6 -73 -14 -79
-18 -17 -11 -123 -22 -231 -26 -94 -3 -103 -1 -160 28 -33 16 -64 33 -70 38
-5 4 -51 38 -101 75 -136 102 -142 108 -150 137 -8 32 15 94 27 74 7 -10 9 -9
9 5 0 15 13 17 128 17 116 0 133 -2 180 -25z m18547 -1 c9 -4 24 -23 35 -44
19 -38 50 -164 50 -210 1 -14 8 -43 16 -65 40 -103 46 -163 34 -317 -7 -99
-16 -157 -28 -180 -11 -21 -18 -68 -22 -133 -6 -111 -19 -148 -53 -143 -20 3
-22 8 -19 53 2 28 9 59 16 70 16 24 20 112 19 365 -1 190 -21 353 -59 480 -22
72 -29 130 -16 130 6 0 18 -3 27 -6z m-9485 -126 c0 -16 -10 -18 -80 -18 -76
0 -105 12 -57 23 12 3 45 12 72 20 52 14 65 10 65 -25z m395 -8 c4 -6 -10 -10
-34 -10 -23 0 -41 5 -41 10 0 6 15 10 34 10 19 0 38 -4 41 -10z m-8530 -171
c61 22 167 26 202 7 41 -21 150 -55 226 -71 15 -3 54 -29 87 -58 90 -80 142
-118 180 -135 19 -8 37 -18 40 -22 3 -4 22 -13 43 -19 20 -7 37 -17 37 -22 0
-5 3 -9 8 -8 26 4 54 -18 71 -56 19 -42 89 -105 116 -105 26 0 108 -54 124
-81 11 -20 46 -42 121 -78 88 -41 115 -60 171 -117 45 -46 73 -86 85 -119 10
-27 26 -57 36 -67 10 -10 18 -22 18 -27 0 -4 26 -20 59 -34 44 -19 61 -32 69
-54 15 -44 90 -121 141 -148 60 -30 113 -94 135 -165 10 -30 24 -66 31 -80 8
-14 61 -121 119 -238 58 -117 116 -226 130 -243 14 -16 33 -47 43 -67 9 -20
27 -50 40 -65 12 -15 29 -49 37 -76 7 -26 26 -71 40 -99 14 -28 26 -67 26 -87
0 -20 7 -52 15 -72 29 -69 13 -538 -17 -508 -13 13 -21 -108 -9 -140 6 -17 11
-41 11 -52 0 -11 6 -26 14 -32 8 -7 17 -31 21 -54 4 -23 13 -55 20 -72 22 -50
28 -162 15 -319 -9 -123 -15 -157 -36 -197 -13 -27 -24 -57 -24 -68 0 -26 -21
-73 -38 -87 -13 -10 -105 -178 -118 -216 -4 -10 -12 -18 -20 -18 -7 0 -19 -10
-26 -23 -30 -53 -60 -97 -67 -97 -5 0 -11 -84 -14 -186 -5 -179 -7 -187 -31
-223 -14 -20 -26 -40 -26 -43 0 -11 -63 -78 -73 -78 -5 0 -28 -20 -51 -45 -24
-25 -40 -45 -37 -45 3 0 -9 -9 -26 -20 -18 -11 -33 -27 -33 -35 0 -9 -9 -15
-24 -15 -14 0 -28 -4 -31 -10 -3 -5 -16 -10 -28 -10 -17 0 -27 -11 -42 -43
-20 -45 -51 -63 -142 -82 -18 -4 -41 -17 -52 -31 -10 -13 -28 -24 -40 -24 -12
0 -21 -5 -21 -11 0 -6 -10 -9 -22 -7 -14 2 -23 10 -22 21 0 9 1 62 2 117 2 82
5 102 21 117 10 10 21 31 25 46 7 28 18 46 44 70 40 37 49 51 71 107 14 34 32
65 42 71 10 5 21 26 24 47 7 40 55 142 68 142 4 0 7 5 7 11 0 5 21 42 46 81
62 95 84 161 86 257 1 97 -13 139 -57 171 -31 23 -35 30 -37 80 -4 92 -1 109
20 128 11 9 27 48 37 87 29 117 47 169 61 181 9 8 14 34 14 80 0 57 4 73 20
87 11 9 20 28 20 42 0 14 7 28 15 31 17 7 35 64 35 115 0 22 7 42 16 50 15 12
16 31 10 157 -5 109 -11 154 -26 185 -10 23 -21 61 -25 84 -5 33 -15 50 -43
73 -20 16 -41 30 -47 30 -6 0 -27 13 -46 30 -20 16 -57 35 -83 42 -25 7 -46
18 -46 25 0 7 -12 20 -27 30 -16 10 -31 21 -34 26 -3 4 -4 114 -1 243 4 198 2
242 -12 277 -9 25 -15 69 -14 110 1 55 -3 74 -20 96 -11 16 -27 44 -35 62 -8
19 -28 50 -45 68 -28 32 -36 35 -97 39 -36 2 -92 -1 -125 -7 -56 -11 -60 -11
-124 21 -42 20 -65 37 -62 45 3 7 1 13 -5 13 -5 0 -15 12 -21 28 -7 15 -19 35
-27 45 -21 26 -41 86 -41 129 0 20 -13 65 -30 100 -16 34 -30 70 -30 79 0 8
-7 24 -15 35 -8 10 -15 29 -15 42 0 12 -11 48 -23 80 -13 31 -31 78 -41 103
-19 53 -162 201 -223 232 -21 11 -47 28 -59 38 -15 14 -52 23 -140 34 -65 9
-147 20 -182 25 -102 16 -204 80 -292 182 -70 82 -108 119 -147 147 -35 24
-44 51 -17 51 10 0 13 6 9 19 -5 18 8 29 42 36 6 2 19 8 30 13 13 8 22 7 36
-6 15 -13 23 -14 52 -3z m11675 -2 c0 -21 -12 -28 -27 -16 -19 16 -16 29 7 29
11 0 20 -6 20 -13z m799 -59 c0 -13 -4 -32 -9 -43 -7 -15 -9 -10 -9 23 -1 23
4 42 9 42 6 0 10 -10 9 -22z m3 -171 c8 -18 -1 -98 -22 -206 -5 -29 -10 -95
-10 -145 -1 -146 -16 -187 -78 -203 -12 -3 -33 2 -46 10 -23 15 -23 17 -9 69
8 29 18 67 22 83 4 17 17 55 28 85 11 30 26 105 33 165 7 61 18 122 26 136 15
30 45 33 56 6z m-812 -132 c0 -14 -4 -25 -10 -25 -11 0 -14 33 -3 43 11 11 13
8 13 -18z m-1566 -104 c24 -9 13 -16 -36 -25 -23 -4 -39 -2 -44 5 -14 23 38
37 80 20z m13423 -171 c3 -11 9 -20 13 -20 11 0 30 -57 30 -89 0 -15 5 -32 10
-37 8 -8 8 -19 0 -38 -9 -24 -12 -26 -25 -12 -8 8 -15 22 -15 31 0 9 -5 26
-12 38 -15 29 -38 128 -32 139 9 15 26 8 31 -12z m-13521 -75 c4 -8 3 -22 0
-32 -6 -14 -9 -14 -26 5 -11 12 -20 26 -20 32 0 16 40 12 46 -5z m12358 -52
c25 -32 76 -150 76 -176 0 -10 7 -29 16 -43 13 -19 18 -57 21 -164 l3 -140
-35 0 c-20 0 -37 5 -39 13 -3 10 -19 102 -32 177 -7 42 -34 151 -54 221 -24
80 -26 119 -5 119 8 0 15 5 15 10 0 17 11 11 34 -17z m-7029 -54 c11 -16 1
-19 -13 -3 -7 8 -8 14 -3 14 5 0 13 -5 16 -11z m5993 -52 c6 -7 18 -69 27
-136 9 -68 20 -134 26 -148 5 -13 9 -41 9 -61 0 -50 31 -149 69 -218 41 -75
41 -126 1 -173 -22 -26 -38 -34 -72 -38 -37 -4 -49 -1 -76 22 -51 43 -62 82
-62 214 0 64 -4 132 -10 150 -29 101 -21 348 12 388 14 17 62 17 76 0z
m-13934 -162 c36 -25 78 -70 108 -115 13 -20 43 -44 68 -57 42 -20 77 -54 228
-223 32 -36 89 -97 125 -136 37 -39 67 -76 67 -82 0 -19 81 -168 106 -195 13
-14 24 -34 24 -44 1 -32 34 -81 70 -105 24 -16 46 -46 70 -95 23 -47 62 -100
116 -158 66 -70 85 -98 99 -144 10 -31 30 -83 45 -116 15 -33 32 -76 39 -96 6
-20 28 -63 48 -95 57 -94 103 -199 115 -261 6 -32 19 -84 29 -116 11 -31 19
-63 19 -70 0 -7 10 -28 23 -47 46 -69 78 -178 92 -315 3 -33 12 -82 20 -110
15 -56 40 -272 60 -520 3 -33 8 -175 11 -315 6 -212 4 -271 -10 -349 -9 -52
-16 -111 -16 -131 0 -32 -13 -77 -64 -220 -20 -56 -43 -97 -67 -121 -15 -15
-19 -34 -19 -81 0 -35 -7 -83 -16 -107 -8 -25 -19 -73 -23 -108 -4 -39 -15
-72 -27 -85 -30 -36 -44 -66 -44 -95 0 -21 -16 -42 -64 -88 -69 -65 -96 -108
-96 -152 0 -16 -11 -45 -25 -66 -50 -73 -107 -34 -106 73 0 57 8 79 77 225 13
28 24 57 25 65 3 26 -12 50 -32 50 -62 0 -94 51 -104 169 -3 41 -11 82 -18 90
-23 28 -87 179 -87 206 0 18 7 28 25 35 20 8 37 3 89 -25 71 -39 106 -45 106
-17 0 16 -43 71 -58 73 -4 1 -17 3 -29 4 -12 1 -29 5 -39 9 -15 6 -16 9 -5 16
12 7 12 13 -3 34 -9 15 -21 24 -26 21 -6 -4 -10 -1 -10 6 0 7 -3 9 -6 6 -7 -7
-53 79 -54 100 0 7 -10 17 -21 24 -20 10 -21 17 -16 95 3 47 2 86 -3 89 -5 3
-9 79 -9 168 1 180 -8 280 -26 317 -7 14 -16 72 -19 130 -4 58 -11 123 -16
145 -5 22 -14 74 -20 115 -7 45 -30 116 -56 176 -24 56 -44 111 -44 123 0 34
-28 80 -84 143 -28 31 -61 70 -74 86 -25 34 -97 165 -94 170 4 5 -110 61 -123
62 -23 1 -56 41 -80 95 -24 54 -25 67 -25 229 0 94 -5 202 -10 239 -12 80 3
197 26 210 17 10 19 69 3 100 -6 12 -33 42 -58 67 -77 74 -91 133 -43 178 45
42 46 68 7 137 -18 33 -47 73 -64 89 -17 17 -31 35 -31 40 0 6 -53 70 -118
143 -128 144 -172 200 -172 218 0 7 -9 20 -21 31 -56 51 -79 155 -44 194 17
18 26 21 65 15 70 -11 238 -96 285 -144 21 -22 44 -41 50 -41 6 0 22 -12 36
-26 13 -14 40 -32 59 -40 19 -8 54 -34 77 -56 41 -41 43 -41 58 -23 8 11 15
23 15 27 0 3 -29 33 -65 65 -36 32 -65 64 -65 71 0 6 -16 27 -36 46 -20 19
-41 44 -48 57 -6 12 -23 30 -38 38 -26 15 -78 82 -78 101 0 12 27 1 64 -25z
m-2306 -92 c13 -41 9 -53 -18 -53 -37 0 -50 12 -50 45 0 27 5 34 23 38 12 2
25 5 28 6 3 0 11 -15 17 -36z m7400 20 c-10 -2 -26 -2 -35 0 -10 3 -2 5 17 5
19 0 27 -2 18 -5z m2996 -93 c17 -16 -3 -40 -33 -40 -35 0 -45 12 -36 41 6 17
12 19 33 14 15 -3 31 -10 36 -15z m-4979 -210 c19 -37 19 -71 0 -96 -14 -18
-16 -18 -50 18 -40 43 -43 60 -15 88 28 28 47 25 65 -10z m3245 -5 c0 -8 -6
-15 -14 -15 -7 0 -19 7 -26 15 -11 13 -8 15 14 15 16 0 26 -5 26 -15z m320
-23 c25 -15 66 -37 93 -49 146 -69 458 -340 582 -507 174 -234 265 -362 265
-371 0 -3 22 -38 49 -78 27 -40 56 -89 65 -108 8 -19 28 -64 45 -100 82 -181
134 -374 201 -749 6 -36 14 -188 17 -338 7 -320 -2 -455 -57 -824 -5 -36 -19
-90 -30 -118 -11 -28 -20 -60 -20 -71 0 -21 -5 -34 -59 -154 -15 -33 -35 -77
-44 -97 -9 -21 -21 -38 -27 -38 -5 0 -7 -6 -4 -14 7 -19 -43 -116 -64 -123 -9
-3 -25 -12 -34 -20 -12 -11 -21 -12 -37 -4 -30 17 -81 13 -130 -9 -24 -11 -48
-20 -55 -20 -6 0 -27 24 -46 53 -19 28 -44 63 -56 77 -12 14 -24 37 -28 52 -3
15 -19 42 -35 60 -45 52 -129 218 -155 308 -16 53 -34 92 -52 111 -25 27 -27
32 -17 62 17 48 10 118 -15 158 l-21 35 21 22 21 21 -32 72 c-37 83 -35 122 4
65 15 -22 25 -51 25 -72 0 -19 7 -46 16 -59 12 -18 15 -40 11 -81 -5 -61 2
-93 39 -169 14 -27 29 -63 34 -80 8 -27 26 -77 59 -157 6 -16 17 -28 25 -28
22 0 46 -29 46 -55 0 -18 7 -25 30 -30 16 -3 32 -14 35 -24 7 -23 126 -107
145 -102 23 4 60 42 60 61 0 10 -9 29 -20 43 -12 14 -32 51 -45 81 l-24 55 29
21 c17 12 30 26 30 31 0 6 7 17 15 26 14 14 14 17 1 32 -11 12 -16 43 -17 114
-1 85 -4 99 -21 108 -26 14 -59 8 -72 -13 -8 -14 -6 -20 9 -32 16 -12 17 -18
8 -39 -7 -14 -9 -34 -6 -46 3 -12 0 -28 -7 -36 -10 -12 -9 -20 4 -40 9 -14 21
-25 26 -25 26 0 6 -20 -26 -26 -75 -14 -146 32 -160 105 -4 17 -10 31 -15 31
-5 0 -15 10 -23 23 -13 18 -13 30 -4 60 10 32 8 43 -10 85 -41 87 -58 214 -70
522 -11 298 -2 526 28 710 14 86 13 110 -5 104 -8 -4 -18 -18 -21 -33 -15 -74
-47 -212 -59 -256 -8 -27 -17 -77 -20 -110 -4 -33 -10 -76 -15 -95 -4 -19 -11
-74 -15 -122 -6 -77 -9 -88 -26 -88 -10 0 -25 12 -32 28 -18 35 -30 129 -18
136 6 4 1 27 -11 57 l-21 50 21 29 c15 20 22 44 22 74 0 44 5 53 45 80 19 14
19 15 2 34 -15 16 -16 25 -8 41 6 11 14 73 17 138 6 109 5 121 -15 153 -27 44
-26 50 3 50 l24 0 0 178 c0 168 -1 179 -24 219 -13 23 -24 57 -24 76 0 19 -7
40 -15 47 -8 7 -12 16 -9 21 8 13 -37 69 -68 85 -30 16 -43 52 -54 149 -11
100 -87 200 -160 212 -21 3 -51 14 -66 24 -14 11 -31 19 -37 19 -16 0 -13 -37
5 -66 11 -16 14 -28 7 -35 -16 -16 -40 1 -47 34 -4 17 -19 44 -34 60 -17 19
-23 31 -15 34 8 3 0 25 -21 66 -29 53 -37 62 -58 59 -22 -3 -25 0 -21 21 3 14
-3 39 -12 57 -16 31 -16 33 2 52 21 20 35 22 96 12 43 -7 52 11 12 26 -30 11
-32 26 -5 35 26 8 111 -23 128 -47 7 -9 32 -23 55 -29 23 -6 57 -24 75 -40 18
-16 38 -29 44 -29 6 0 30 -21 54 -47 36 -39 45 -44 58 -34 12 10 18 8 33 -9
10 -12 34 -36 53 -53 19 -18 56 -53 82 -79 26 -26 56 -52 67 -58 12 -6 21 -18
21 -28 0 -9 36 -48 80 -87 44 -38 80 -73 80 -76 0 -11 130 -144 130 -133 0 14
-39 66 -85 111 -40 39 -105 110 -137 151 -10 12 -26 38 -37 59 -11 21 -57 74
-103 119 -127 123 -157 146 -184 141 -17 -3 -34 7 -65 40 -24 23 -51 43 -61
43 -10 0 -18 3 -18 8 0 17 -89 62 -124 62 -27 0 -45 9 -76 36 -22 20 -40 43
-40 51 0 23 95 7 150 -25z m6141 -58 c8 -10 13 -48 13 -112 1 -83 -2 -103 -23
-142 -28 -54 -36 -60 -83 -60 -62 0 -84 61 -58 161 6 22 15 58 21 80 6 23 21
52 34 65 28 28 76 32 96 8z m-1261 -39 c11 -12 15 -38 15 -104 0 -73 -3 -93
-19 -110 -11 -12 -22 -21 -25 -21 -8 0 -74 67 -106 107 -27 33 -42 90 -28 109
4 5 19 18 33 28 30 21 105 15 130 -9z m-8447 -47 c6 -41 -4 -48 -30 -23 -12
12 -18 13 -29 4 -11 -9 -14 -7 -14 10 0 18 4 21 19 16 14 -4 23 0 31 15 14 26
16 25 23 -22z m226 -33 c33 -36 41 -52 41 -83 0 -21 -6 -47 -14 -57 -14 -19
-15 -19 -34 -2 -10 9 -32 49 -47 87 -23 57 -26 72 -15 85 18 22 23 20 69 -30z
m2967 -106 c12 -28 20 -37 27 -30 15 15 70 14 85 -1 15 -15 16 -50 2 -64 -7
-7 -7 -28 0 -64 12 -62 8 -71 -15 -36 -18 28 -58 49 -115 64 -38 9 -36 1 -32
117 2 68 24 75 48 14z m-2911 -109 c27 -22 45 -67 55 -133 5 -34 12 -77 16
-94 6 -31 4 -33 -20 -33 -35 0 -64 31 -71 77 -4 21 -13 63 -21 93 -8 30 -18
65 -21 78 -3 14 1 30 13 43 17 19 18 19 25 2 4 -10 14 -25 24 -33z m-270 -30
c3 -5 14 -10 23 -10 11 0 24 -17 36 -46 17 -42 17 -47 3 -61 -11 -12 -20 -13
-29 -6 -7 6 -26 13 -43 17 -16 4 -36 12 -42 18 -17 14 -17 85 0 91 21 9 46 7
52 -3z m2805 -7 c-1 -21 -19 -35 -39 -28 -32 10 -26 35 9 35 17 0 30 -3 30 -7z
m6695 -57 c22 -34 68 -50 135 -48 46 1 61 -2 75 -18 10 -11 24 -20 31 -20 7 0
24 -15 37 -32 56 -75 40 -153 -38 -182 -38 -15 -52 -16 -106 -5 -34 7 -68 19
-76 28 -70 83 -87 101 -102 106 -24 7 -61 76 -61 112 0 36 42 78 82 82 4 1 15
-10 23 -23z m-5835 -127 c0 -6 -4 -7 -10 -4 -5 3 -10 11 -10 16 0 6 5 7 10 4
6 -3 10 -11 10 -16z m-340 -69 c0 -5 -8 -10 -19 -10 -13 0 -20 -9 -24 -30 -6
-27 -11 -30 -42 -30 -34 0 -46 -12 -25 -25 6 -3 10 -15 10 -25 0 -17 -2 -17
-30 -4 -16 9 -30 17 -30 18 0 2 9 24 20 49 13 29 25 44 34 41 7 -3 19 2 26 11
14 17 80 21 80 5z m6344 -297 c14 -21 50 -62 80 -92 51 -51 55 -59 62 -115 15
-124 -1 -206 -41 -206 -8 0 -15 -4 -15 -10 0 -5 -16 -10 -35 -10 -51 0 -65 33
-63 157 1 96 0 100 -36 161 -41 72 -42 81 -21 122 21 40 40 38 69 -7z m-14810
-179 c3 -9 6 -38 6 -65 0 -48 0 -49 -32 -50 -58 -3 -63 -4 -75 -12 -25 -16
-31 4 -12 43 10 21 19 44 19 50 0 6 14 13 31 17 17 3 33 12 36 19 7 19 19 18
27 -2z m10914 -346 c4 -22 -33 -41 -64 -34 -46 12 -25 51 28 51 23 0 34 -5 36
-17z m-1900 -87 c-4 -32 -45 -43 -54 -14 -3 10 -10 26 -15 35 -13 25 -12 26
14 30 31 5 59 -20 55 -51z m9117 9 c3 -10 -6 -35 -22 -59 -43 -66 -71 -50 -59
33 7 42 8 44 41 44 24 0 36 -5 40 -18z m-9211 -41 c-3 -5 -10 -7 -15 -3 -5 3
-7 10 -3 15 3 5 10 7 15 3 5 -3 7 -10 3 -15z m1979 -81 c-8 -45 -20 -56 -39
-36 -27 27 -8 59 38 67 4 0 5 -14 1 -31z m207 -634 c0 -8 -7 -14 -15 -14 -15
0 -21 21 -9 33 10 9 24 -2 24 -19z m-2080 -26 c0 -30 -1 -31 -16 -16 -9 9 -14
24 -11 32 11 27 27 17 27 -16z m25 -81 c0 -26 -20 -25 -23 2 -3 16 1 22 10 19
7 -3 13 -12 13 -21z m9255 -52 c0 -30 -3 -35 -24 -35 -13 0 -38 -3 -55 -6 -31
-6 -31 -6 -24 27 8 41 17 49 66 49 36 0 37 -1 37 -35z m-394 -9 c32 -32 34
-39 34 -97 0 -125 -41 -199 -110 -199 -122 0 -162 208 -59 311 12 12 33 19 60
19 33 0 47 -6 75 -34z m-469 -179 c35 -33 36 -37 41 -116 6 -99 -13 -159 -62
-196 -60 -46 -130 -23 -161 52 -24 57 -20 171 8 224 41 78 112 92 174 36z
m-702 -275 c6 -4 21 -20 33 -36 19 -25 22 -41 22 -130 0 -136 -9 -164 -63
-198 -66 -42 -131 -36 -159 15 -18 34 -28 204 -15 256 12 44 51 84 92 94 32 8
79 7 90 -1z m-1319 -345 c22 -20 27 -34 35 -102 4 -44 8 -81 8 -82 3 -12 23 3
42 32 13 19 27 35 31 35 4 0 17 -21 28 -47 20 -45 21 -60 16 -238 l-5 -190
-36 -19 c-36 -18 -37 -18 -55 0 -20 21 -50 142 -50 203 0 23 -4 41 -9 41 -4 0
-26 -14 -47 -31 -81 -64 -139 -76 -181 -37 -22 20 -23 28 -23 159 0 150 9 186
57 230 74 70 141 87 189 46z m-795 -282 c10 -22 19 -54 19 -72 0 -80 -80 -217
-124 -211 -18 3 -22 12 -30 75 -8 64 -6 79 14 130 13 32 35 77 49 99 30 48 43
45 72 -21z m-740 8 c5 -14 8 -63 7 -107 -2 -65 -6 -81 -19 -84 -36 -7 -58 126
-31 191 15 34 30 35 43 0z m2357 -66 c4 -34 -28 -80 -70 -101 -41 -21 -55 -20
-68 3 -17 33 -11 54 26 94 31 33 42 38 73 35 31 -3 36 -7 39 -31z m-1415 -60
c9 -23 -5 -71 -26 -95 -18 -20 -21 -33 -18 -106 2 -89 -9 -116 -36 -81 -16 23
-18 151 -2 160 6 4 10 21 9 39 -3 52 -1 64 16 80 19 19 50 21 57 3z m-5153
-131 c0 -3 -4 -8 -10 -11 -5 -3 -10 -1 -10 4 0 6 5 11 10 11 6 0 10 -2 10 -4z
m4187 -148 c-2 -13 -4 -3 -4 22 0 25 2 35 4 23 2 -13 2 -33 0 -45z m-18027
-65 c9 -9 1 -256 -9 -266 -5 -5 -21 -9 -35 -9 -14 0 -26 -4 -26 -8 0 -4 -17
-13 -37 -21 -56 -21 -136 -10 -169 22 -27 28 -49 101 -37 124 14 23 104 115
114 115 5 0 9 6 9 14 0 18 14 27 54 36 31 6 127 1 136 -7z m13440 7 c0 -5 -5
-10 -11 -10 -5 0 -7 5 -4 10 3 6 8 10 11 10 2 0 4 -4 4 -10z m250 -24 c0 -3
-4 -8 -10 -11 -5 -3 -10 -1 -10 4 0 6 5 11 10 11 6 0 10 -2 10 -4z m-6733
-178 c40 -86 42 -112 11 -145 -25 -27 -48 -29 -88 -8 -48 25 -63 75 -39 129
22 47 98 63 116 24z m3507 -194 c10 -25 7 -34 -9 -34 -9 0 -15 9 -15 25 0 28
15 34 24 9z m-234 -59 c15 -18 5 -64 -15 -72 -8 -3 -26 -2 -40 1 -20 5 -25 13
-25 40 0 18 3 36 7 39 12 13 60 7 73 -8z m56 -277 c-14 -69 -87 -105 -94 -46
-5 43 24 78 65 78 35 0 35 -1 29 -32z m-3002 -84 c22 -8 20 -17 -15 -68 -24
-37 -36 -46 -60 -46 -16 0 -29 2 -29 5 0 2 11 21 25 41 14 20 25 45 25 55 0
19 23 25 54 13z m4969 -23 c-13 -13 -38 -20 -93 -24 -131 -9 -150 22 -20 34
36 3 80 7 98 7 32 2 32 1 15 -17z m-228 -31 c0 -11 -12 -15 -47 -15 -26 -1
-53 -6 -60 -13 -14 -14 -88 -16 -88 -3 0 11 22 20 90 36 70 16 105 15 105 -5z
m-257 -52 c-5 -14 -91 -23 -117 -13 -14 6 -13 8 4 15 33 14 117 12 113 -2z
m-1063 -18 c-3 -5 -24 -10 -45 -10 -21 0 -42 5 -45 10 -4 6 13 10 45 10 32 0
49 -4 45 -10z m870 -3 c16 -12 8 -15 -60 -20 -42 -4 -84 -3 -93 2 -22 13 -5
19 63 24 28 2 55 4 61 5 5 1 18 -4 29 -11z m-690 -17 c3 -5 -1 -10 -10 -10
-13 0 -15 -7 -9 -35 6 -35 6 -35 -30 -35 -36 0 -49 16 -21 26 8 4 15 12 15 20
0 8 6 14 13 14 8 0 8 3 -2 9 -11 7 -10 10 5 14 31 8 33 7 39 -3z m175 0 c0 -5
-2 -10 -4 -10 -3 0 -8 5 -11 10 -3 6 -1 10 4 10 6 0 11 -4 11 -10z m-477 -30
c14 -11 40 -20 60 -20 33 0 64 -20 50 -33 -18 -18 -80 -6 -113 23 -19 16 -43
29 -53 30 -24 0 -12 20 12 20 10 0 30 -9 44 -20z m509 -11 c19 -10 19 -11 -7
-25 -31 -16 -63 -18 -85 -4 -16 10 -15 11 20 27 33 15 47 15 72 2z m-1452 -45
c0 -8 -5 -12 -10 -9 -6 4 -8 11 -5 16 9 14 15 11 15 -7z m888 -8 c13 -13 -12
-19 -91 -22 -86 -3 -138 5 -144 22 -4 11 224 10 235 0z m-344 -117 c42 -35 36
-49 -21 -49 -17 0 -34 -4 -38 -9 -9 -15 -177 -32 -190 -19 -13 13 12 41 59 65
102 52 138 54 190 12z m7946 -6 c19 -63 23 -176 10 -282 -21 -171 -38 -133
-44 99 -5 197 8 269 34 183z m-7515 -4 c11 -11 -23 -11 -128 -3 -43 4 -77 11
-77 17 0 12 191 -1 205 -14z m105 -23 c0 -11 -19 -15 -25 -6 -3 5 1 10 9 10 9
0 16 -2 16 -4z m-12720 -15 c0 -6 18 -9 40 -8 l41 2 20 -58 c11 -32 21 -80 22
-105 2 -69 -5 -202 -10 -169 -6 38 -20 34 -25 -9 -3 -24 1 -38 11 -44 12 -6
12 -11 3 -22 -6 -8 -15 -32 -20 -54 -10 -51 -42 -59 -69 -17 -9 15 -22 31 -27
35 -6 4 -10 24 -11 46 0 22 -8 47 -17 56 -9 9 -19 25 -23 35 -10 31 -115 103
-164 113 -52 9 -61 20 -61 69 0 27 7 42 30 62 16 15 35 27 42 27 7 0 22 7 33
15 14 11 32 13 67 9 40 -6 48 -4 48 10 0 12 9 16 35 16 19 0 35 -4 35 -9z
m12330 -30 c0 -5 -7 -11 -15 -15 -9 -3 -15 0 -15 9 0 8 7 15 15 15 8 0 15 -4
15 -9z m7786 -478 c-3 -8 -11 -11 -17 -7 -12 7 -6 104 8 140 9 22 17 -110 9
-133z m-91 -33 c-4 -41 -10 -79 -15 -83 -9 -10 -24 158 -15 173 5 8 11 7 22
-2 12 -10 14 -26 8 -88z m-19871 -727 c4 -49 9 -105 12 -127 5 -38 4 -38 -23
-32 -15 4 -43 10 -61 13 -31 5 -32 7 -26 39 5 27 3 34 -10 34 -9 0 -16 7 -16
15 0 8 -4 15 -10 15 -5 0 -10 11 -10 25 0 26 14 34 24 13 5 -10 7 -10 12 0 3
6 19 12 35 12 27 0 29 2 29 40 0 33 3 40 19 40 17 0 20 -10 25 -87z m19956 10
c0 -10 -5 -25 -10 -33 -7 -11 -10 -7 -10 18 0 17 5 32 10 32 6 0 10 -8 10 -17z"/>
<path d="M15130 9994 c0 -9 7 -14 17 -12 25 5 28 28 4 28 -12 0 -21 -6 -21
-16z"/>
<path d="M10150 2980 c0 -5 5 -10 10 -10 6 0 10 5 10 10 0 6 -4 10 -10 10 -5
0 -10 -4 -10 -10z"/>
<path d="M4478 4910 c-4 -14 -7 -47 -7 -75 1 -49 1 -49 10 -17 6 19 9 53 7 75
-3 36 -4 39 -10 17z"/>
<path d="M10353 5664 c1 -44 -2 -149 -7 -235 -10 -177 -6 -215 23 -200 10 6
21 8 23 5 24 -23 51 126 37 202 -5 27 -9 88 -8 135 2 93 -10 132 -48 157 l-23
14 3 -78z"/>
<path d="M17140 5369 c-5 -13 -19 -36 -31 -50 -15 -19 -18 -33 -13 -54 l7 -28
13 24 c7 13 13 30 14 37 0 8 7 29 16 48 9 19 14 37 11 41 -4 3 -11 -5 -17 -18z"/>
<path d="M17720 4775 c0 -4 7 -19 15 -36 19 -35 35 -30 35 12 0 24 -4 29 -25
29 -14 0 -25 -2 -25 -5z"/>
<path d="M17400 4722 c0 -18 59 -96 67 -89 10 11 -19 87 -37 97 -26 14 -30 13
-30 -8z"/>
<path d="M17230 4695 c0 -12 5 -26 10 -31 6 -6 14 -43 17 -83 7 -84 19 -82 28
5 7 59 6 63 -24 95 -26 30 -30 31 -31 14z"/>
<path d="M17755 4563 c3 -27 6 -61 5 -78 -6 -89 -6 -90 19 -93 l24 -4 -7 84
c-4 45 -7 90 -8 98 -1 19 -17 40 -31 40 -6 0 -7 -18 -2 -47z"/>
<path d="M17340 4543 c0 -76 21 -137 49 -141 27 -4 26 2 -1 41 -16 22 -24 50
-26 94 -5 79 -22 83 -22 6z"/>
<path d="M17560 4463 c0 -69 11 -112 26 -106 29 11 34 39 14 79 -11 21 -20 44
-20 51 0 7 -4 13 -10 13 -5 0 -10 -17 -10 -37z"/>
<path d="M17655 4469 c-10 -30 11 -48 32 -27 13 14 14 20 3 32 -17 22 -27 20
-35 -5z"/>
<path d="M17465 4409 c-4 -6 -5 -13 -2 -16 7 -7 27 6 27 18 0 12 -17 12 -25
-2z"/>
<path d="M17265 4369 c-4 -5 -4 -21 -1 -35 10 -37 40 -28 44 14 3 26 0 32 -17
32 -11 0 -23 -5 -26 -11z"/>
<path d="M17718 4167 c-40 -51 -12 -99 37 -64 12 10 15 16 6 21 -8 5 -7 13 3
28 16 22 11 48 -9 48 -7 0 -24 -15 -37 -33z"/>
<path d="M17606 4154 c-22 -21 -17 -49 9 -49 13 0 21 8 23 24 5 33 -11 46 -32
25z"/>
<path d="M17276 4118 c-12 -47 -7 -118 10 -125 23 -9 32 13 27 61 -7 63 -13
86 -22 86 -5 0 -11 -10 -15 -22z"/>
<path d="M17437 4128 c-14 -7 -17 -17 -12 -38 6 -28 -8 -49 -20 -30 -13 21
-36 9 -51 -25 -18 -44 -18 -45 4 -45 10 0 27 -7 38 -15 33 -25 51 -18 66 27 7
22 22 46 33 52 28 15 35 27 35 59 0 27 -22 38 -35 17 -4 -6 -13 -7 -23 -1 -11
6 -24 6 -35 -1z"/>
<path d="M17175 4037 c-8 -62 -4 -98 10 -97 12 0 17 150 5 150 -5 0 -12 -24
-15 -53z"/>
<path d="M17707 4041 c7 -26 16 -33 37 -25 22 8 20 24 -2 24 -10 0 -23 5 -29
11 -9 9 -10 6 -6 -10z"/>
<path d="M17514 4009 c-3 -6 0 -18 9 -26 11 -12 19 -13 36 -4 31 17 27 41 -8
41 -17 0 -33 -5 -37 -11z"/>
<path d="M17262 3938 c-7 -7 -12 -29 -12 -50 0 -31 3 -38 20 -38 13 0 24 10
30 25 5 14 14 25 20 25 15 0 12 16 -6 34 -19 19 -36 20 -52 4z"/>
<path d="M21935 12868 c-3 -7 1 -44 9 -83 8 -38 15 -58 15 -44 1 14 6 41 12
58 8 24 9 39 0 57 -11 26 -29 32 -36 12z"/>
<path d="M8991 12758 c-13 -34 10 -55 44 -40 29 13 31 24 9 46 -22 22 -43 20
-53 -6z"/>
<path d="M11150 10389 c0 -43 3 -50 18 -47 21 4 28 48 12 78 -18 34 -30 22
-30 -31z"/>
<path d="M21915 10300 c-4 -6 -3 -16 3 -22 6 -6 12 -6 17 2 4 6 3 16 -3 22 -6
6 -12 6 -17 -2z"/>
<path d="M6062 10045 c-7 -44 -12 -92 -12 -107 0 -15 -4 -29 -9 -32 -5 -3 -14
-26 -20 -52 -6 -25 -21 -55 -31 -67 -11 -11 -20 -33 -20 -47 0 -44 21 -61 78
-65 29 -2 52 -1 52 2 0 4 -9 16 -19 27 -19 20 -19 27 -6 181 7 88 10 178 7
200 -7 38 -8 37 -20 -40z"/>
<path d="M21980 8418 c-20 -46 -22 -69 -23 -208 0 -101 4 -166 12 -185 9 -20
10 -47 5 -80 -4 -27 -8 -89 -9 -137 -2 -48 -6 -107 -9 -132 -4 -28 -1 -83 10
-143 11 -65 14 -124 11 -174 -7 -81 5 -115 34 -104 41 16 54 67 83 340 35 321
27 502 -30 742 -36 151 -49 163 -84 81z"/>
<path d="M12510 8300 c0 -15 40 -87 56 -101 23 -19 17 6 -11 51 -14 22 -25 44
-25 50 0 5 -4 10 -10 10 -5 0 -10 -4 -10 -10z"/>
<path d="M21867 7123 c-15 -15 -3 -173 13 -173 9 0 17 100 11 148 -3 31 -11
39 -24 25z"/>
<path d="M18345 6664 c9 -9 19 -13 23 -10 3 4 0 11 -8 16 -24 15 -33 11 -15
-6z"/>
<path d="M21867 6154 c-3 -5 -8 -40 -12 -79 -5 -64 -5 -68 9 -51 20 24 31 99
18 121 -5 10 -12 14 -15 9z"/>
<path d="M19057 5748 c-7 -23 -1 -38 14 -38 12 0 12 47 0 54 -5 3 -11 -4 -14
-16z"/>
<path d="M18725 5699 c-4 -6 -1 -15 6 -20 21 -13 31 -11 27 8 -4 20 -24 28
-33 12z"/>
<path d="M14251 5668 c-10 -25 1 -44 18 -34 14 9 14 56 1 56 -6 0 -15 -10 -19
-22z"/>
<path d="M18840 5590 c0 -5 7 -10 16 -10 8 0 12 5 9 10 -3 6 -10 10 -16 10 -5
0 -9 -4 -9 -10z"/>
<path d="M18691 5561 c-8 -5 -10 -14 -7 -20 8 -13 46 -15 46 -2 0 16 -25 30
-39 22z"/>
<path d="M18985 5512 c-3 -3 -5 -16 -5 -29 0 -19 5 -23 30 -23 17 0 30 -4 30
-10 0 -15 24 -7 32 10 4 8 7 24 7 35 1 17 -6 20 -44 21 -24 1 -47 -1 -50 -4z"/>
<path d="M14290 5374 c-24 -8 -51 -21 -60 -30 -13 -14 -13 -17 3 -29 10 -7 35
-16 55 -20 20 -3 56 -17 79 -31 71 -41 152 -182 173 -302 6 -34 20 -84 32
-110 64 -145 90 -280 68 -356 -10 -36 -9 -49 4 -81 18 -43 21 -96 5 -112 -16
-16 -39 -113 -39 -173 -1 -30 -5 -77 -10 -105 -5 -27 -14 -83 -20 -122 -6 -40
-24 -112 -40 -160 -17 -49 -30 -95 -30 -103 0 -8 -21 -59 -47 -112 -47 -99
-50 -119 -16 -98 38 24 143 206 143 248 0 27 18 75 32 83 17 11 67 339 78 509
5 85 12 169 15 185 3 17 2 91 -3 165 -8 118 -13 144 -40 202 -16 36 -33 90
-37 120 -8 62 -67 237 -95 283 -28 45 -109 119 -158 144 -23 12 -43 21 -44 20
-2 -1 -23 -7 -48 -15z"/>
<path d="M21130 5265 c0 -39 42 -75 85 -75 74 0 95 33 48 75 -22 19 -39 24
-80 25 -50 0 -53 -1 -53 -25z"/>
<path d="M21810 4701 c0 -44 8 -71 21 -71 5 0 9 25 9 55 0 42 -3 55 -15 55
-11 0 -15 -11 -15 -39z"/>
<path d="M19125 4406 c-3 -9 -7 -22 -9 -30 -6 -19 29 -27 50 -12 9 7 15 21 12
32 -4 24 -46 32 -53 10z"/>
<path d="M21816 3948 c-14 -22 -37 -168 -38 -238 0 -19 4 -57 9 -85 7 -44 11
-50 33 -50 31 0 37 26 46 210 5 101 4 147 -5 163 -15 28 -27 28 -45 0z"/>
<path d="M19300 3915 c0 -28 4 -35 20 -35 23 0 28 38 8 58 -20 20 -28 14 -28
-23z"/>
<path d="M20750 3040 c-8 -5 -36 -10 -61 -10 -33 0 -51 -6 -64 -20 -10 -11
-16 -23 -13 -26 9 -9 142 19 159 33 9 8 30 18 45 23 28 8 27 8 -11 9 -22 0
-47 -4 -55 -9z"/>
<path d="M20464 3032 c-6 -4 -19 -21 -27 -39 -18 -35 -64 -55 -132 -58 -43 -2
-235 -67 -269 -90 -11 -8 -28 -15 -37 -15 -10 0 -19 -3 -21 -7 -3 -8 -33 -23
-103 -53 -24 -11 -26 -14 -12 -18 10 -2 33 3 52 12 18 9 37 16 42 16 4 0 31
12 58 25 28 14 64 25 81 25 17 0 51 7 74 15 23 8 57 15 75 15 19 0 72 13 118
30 72 25 89 28 116 19 43 -15 81 -4 81 22 0 22 -32 75 -58 97 -18 14 -23 14
-38 4z"/>
<path d="M19445 2740 c-4 -6 4 -19 16 -29 23 -18 31 -17 78 13 12 8 11 11 -5
17 -28 11 -82 10 -89 -1z"/>
<path d="M18743 2571 c-25 -21 -21 -31 13 -31 29 0 37 13 21 33 -11 15 -14 14
-34 -2z"/>
<path d="M18967 2562 c-10 -10 -14 -22 -10 -25 12 -12 60 -7 73 8 28 33 -33
50 -63 17z"/>
<path d="M19372 2558 c-18 -18 5 -38 44 -38 42 0 51 14 22 34 -27 19 -50 20
-66 4z"/>
<path d="M20020 2541 c-92 -51 -132 -63 -145 -41 -9 15 -46 12 -80 -6 -46 -24
-107 -44 -137 -44 -17 0 -44 -15 -74 -41 -38 -33 -53 -40 -75 -35 -32 6 -40
-2 -54 -59 -13 -50 -44 -56 -60 -10 -13 41 -19 43 -73 30 l-47 -12 -3 -129
c-3 -148 1 -174 27 -174 16 0 19 -12 25 -97 6 -89 5 -100 -14 -125 -29 -40
-29 -107 0 -205 24 -83 33 -97 44 -68 9 26 26 17 26 -14 0 -18 -8 -35 -19 -43
-34 -25 -54 -80 -59 -165 -6 -105 1 -135 31 -131 12 2 27 13 33 26 16 33 20
35 41 21 17 -10 32 -6 97 27 83 42 110 72 95 111 -4 12 -11 49 -15 83 -7 67
-16 76 -58 61 -24 -10 -28 -8 -36 15 -15 38 -1 97 30 134 30 35 42 88 40 175
-3 139 2 240 12 252 6 7 14 28 18 46 7 29 9 30 15 10 4 -12 13 -24 20 -27 8
-3 16 -29 20 -60 4 -31 11 -56 16 -56 5 0 9 5 9 10 0 6 4 10 9 10 5 0 7 -9 4
-20 -3 -11 -12 -20 -19 -20 -17 0 -18 -17 -1 -23 7 -4 6 -6 -4 -6 -10 -1 -22
-18 -31 -45 -13 -40 -13 -47 6 -87 11 -24 25 -48 32 -54 14 -12 25 -61 29
-132 2 -30 15 -73 31 -104 23 -46 25 -57 15 -84 -21 -60 -9 -81 37 -64 19 7
22 15 20 45 -3 34 0 38 32 49 23 8 36 19 38 33 2 12 6 22 8 22 18 0 43 -23 48
-45 8 -32 13 -31 91 5 35 17 69 30 75 30 5 0 10 6 10 13 0 7 9 20 20 30 11 9
20 28 20 41 0 14 5 28 10 31 11 7 14 155 4 193 -4 14 -14 22 -28 22 -12 0 -31
6 -41 14 -18 13 -19 30 -20 292 0 245 2 283 17 313 13 25 15 38 7 53 -6 11 -8
26 -5 34 8 20 -22 18 -64 -5z m-278 -256 c18 -140 1 -263 -36 -249 -36 14 -48
198 -17 277 18 46 45 32 53 -28z m238 -487 c0 -13 -3 -40 -6 -60 -5 -31 -11
-38 -29 -38 -26 0 -35 17 -35 69 0 45 5 51 42 51 22 0 28 -4 28 -22z"/>
<path d="M18570 2468 c0 -7 -11 -26 -24 -41 -21 -25 -34 -29 -104 -36 -87 -9
-113 -18 -91 -32 8 -5 27 -9 43 -9 18 0 41 -10 57 -26 32 -31 55 -27 69 11 12
32 34 41 64 27 18 -8 29 -7 42 2 11 7 36 19 57 25 20 7 37 19 37 27 0 20 -40
18 -55 -3 -11 -15 -15 -15 -29 -4 -9 7 -16 21 -16 30 0 20 -19 41 -37 41 -7 0
-13 -6 -13 -12z"/>
<path d="M19061 2469 c-24 -5 -78 -22 -120 -39 -42 -17 -85 -35 -96 -39 -50
-19 -115 -55 -115 -62 0 -16 38 -9 122 21 46 17 115 40 153 52 39 11 87 29
107 39 21 11 46 19 57 19 11 0 23 5 26 10 7 12 -71 12 -134 -1z"/>
<path d="M17948 2375 c-16 -16 6 -25 60 -25 41 0 53 3 45 11 -14 14 -95 24
-105 14z"/>
<path d="M20150 2348 c0 -19 2 -20 10 -8 13 19 13 30 0 30 -5 0 -10 -10 -10
-22z"/>
<path d="M18698 2303 c7 -3 16 -2 19 1 4 3 -2 6 -13 5 -11 0 -14 -3 -6 -6z"/>
<path d="M18605 2270 c-20 -14 -25 -20 -13 -20 9 0 20 5 23 10 3 6 15 10 26
10 10 0 19 5 19 10 0 16 -22 12 -55 -10z"/>
<path d="M18026 2264 c-27 -26 -19 -37 21 -31 41 7 59 20 49 36 -10 16 -52 13
-70 -5z"/>
<path d="M19135 2273 c-11 -3 -26 -12 -33 -21 -6 -9 -35 -22 -64 -29 -71 -19
-79 -26 -71 -78 3 -24 3 -51 -1 -60 -5 -15 -9 -14 -32 4 -26 21 -55 27 -67 15
-3 -3 2 -27 12 -53 21 -51 57 -312 47 -337 -3 -8 -3 -26 0 -39 6 -23 7 -23 23
-7 9 9 22 29 29 45 6 15 17 27 23 27 9 0 10 -22 6 -81 -5 -67 -3 -87 10 -110
21 -35 28 -36 47 -6 12 18 13 30 4 65 -8 33 -8 49 2 70 7 15 28 65 46 112 24
64 37 85 51 85 15 0 19 -10 23 -60 7 -82 20 -38 20 68 0 60 -3 79 -15 83 -19
8 -20 58 -1 73 16 13 31 172 21 214 -7 27 -27 32 -80 20z"/>
<path d="M17394 2225 c-7 -18 39 -65 64 -65 14 0 12 4 -6 19 -22 16 -23 19 -8
33 14 15 14 17 0 22 -26 10 -44 7 -50 -9z"/>
<path d="M18368 2219 c-10 -5 -18 -18 -18 -28 0 -15 11 -19 57 -24 32 -3 60
-4 63 -1 7 8 -57 64 -73 64 -6 0 -20 -5 -29 -11z"/>
<path d="M17767 2213 c-9 -2 -24 -17 -32 -33 -18 -34 -56 -48 -149 -54 -65 -4
-71 -6 -102 -41 -18 -21 -31 -42 -28 -46 3 -5 -1 -9 -10 -9 -8 0 -16 5 -18 11
-2 7 -27 12 -58 12 -74 1 -163 -45 -168 -87 -3 -22 -7 -26 -20 -20 -31 13
-176 24 -237 17 -33 -4 -64 -6 -69 -4 -34 9 -131 9 -142 0 -10 -9 -14 -9 -14
0 0 6 -7 11 -16 11 -11 0 -14 -6 -9 -22 11 -36 18 -39 104 -45 72 -5 84 -9
101 -31 33 -41 26 -45 -54 -39 -62 6 -79 11 -100 32 -21 21 -29 23 -49 14 -19
-9 -31 -7 -55 5 -41 21 -75 20 -95 -2 -31 -34 -22 -47 30 -42 13 1 26 -7 33
-19 8 -16 20 -21 55 -21 32 0 45 -4 45 -14 0 -19 -22 -26 -81 -26 -35 0 -58
-6 -79 -21 -27 -21 -37 -21 -192 -17 -134 4 -167 2 -186 -10 -20 -13 -37 -14
-125 -3 -136 16 -163 15 -189 -3 -12 -9 -35 -16 -50 -16 -15 0 -30 -4 -33 -10
-3 -5 -28 -10 -55 -10 -59 0 -100 -14 -100 -35 0 -12 17 -15 98 -15 67 0 104
-4 117 -13 28 -22 7 -27 -129 -32 -121 -5 -126 -4 -126 15 0 12 -10 24 -22 30
-19 7 -28 3 -50 -21 -23 -24 -35 -29 -76 -29 -41 0 -57 -6 -94 -34 -25 -19
-48 -42 -51 -50 -5 -13 -24 -16 -91 -16 -99 0 -136 -11 -136 -40 0 -18 6 -20
67 -20 48 0 72 -5 85 -16 33 -31 254 -12 276 23 15 23 109 30 237 16 l80 -8 0
-50 0 -50 -47 -9 c-30 -6 -48 -15 -51 -26 -4 -17 -91 -41 -162 -44 -16 -1 -44
-9 -62 -19 -18 -9 -42 -17 -55 -17 -13 0 -32 -6 -43 -13 -11 -8 -49 -20 -85
-27 -36 -7 -75 -19 -87 -26 -12 -8 -33 -14 -45 -14 -13 -1 -34 -7 -48 -15 -33
-19 -59 -19 -67 1 -9 25 24 44 74 44 41 0 43 1 43 30 0 26 -3 30 -29 30 -16 0
-42 -7 -57 -15 -16 -8 -38 -15 -49 -15 -11 0 -31 -7 -43 -16 -13 -9 -49 -17
-90 -18 -37 -2 -148 -7 -246 -11 -172 -8 -180 -9 -200 -32 -19 -22 -26 -24
-79 -18 -68 8 -107 -10 -107 -49 0 -36 10 -55 26 -49 8 3 14 -1 14 -10 0 -31
64 -37 80 -7 6 11 16 20 23 20 7 0 24 7 40 15 23 12 47 12 147 3 104 -10 122
-9 138 4 19 17 158 61 175 55 6 -2 11 -21 11 -43 l1 -39 65 0 c66 0 88 6 123
37 10 9 40 18 65 21 26 2 92 20 147 39 55 20 133 46 173 58 40 12 75 26 78 31
3 5 21 9 40 9 19 0 34 4 34 9 0 5 20 12 44 15 24 4 52 13 62 21 11 8 31 11 47
8 19 -4 34 0 48 13 15 14 47 22 112 29 87 9 92 11 95 35 8 56 81 92 112 55 16
-19 96 -20 107 -2 4 8 33 22 63 32 30 10 72 24 93 31 20 8 51 14 67 14 23 0
30 5 30 19 0 10 -9 21 -20 24 -28 7 -25 24 5 31 30 8 45 1 45 -21 0 -13 9 -15
52 -10 62 8 72 16 59 50 -7 17 -7 28 -1 32 15 9 30 -4 30 -24 0 -13 8 -17 35
-17 19 1 37 6 39 13 3 6 30 15 61 18 30 4 58 11 61 16 3 5 20 9 38 9 35 0 60
18 48 36 -13 19 -44 25 -61 11 -16 -15 -120 -31 -104 -17 10 10 157 60 176 60
7 0 27 6 43 14 16 8 45 18 66 21 31 6 38 4 48 -14 9 -17 14 -19 31 -11 11 6
29 8 39 5 30 -10 42 2 29 28 -7 12 -17 25 -23 29 -6 4 10 8 36 8 26 0 50 -5
53 -10 7 -12 63 -4 82 12 11 9 11 15 -2 34 -8 13 -15 28 -15 34 0 15 101 1
118 -17 11 -11 18 -10 39 7 14 11 33 20 41 20 12 0 13 3 4 12 -9 9 -18 8 -39
-2 -16 -8 -31 -16 -35 -18 -5 -2 -8 3 -8 10 0 17 83 56 134 65 20 3 46 16 58
28 14 13 42 25 69 29 26 4 55 13 65 21 11 8 26 15 34 15 8 0 49 14 89 30 41
17 107 39 147 50 40 10 86 26 103 34 16 9 42 16 56 16 17 0 25 5 22 13 -9 26
-189 1 -352 -49 -46 -15 -142 -56 -207 -90 -14 -8 -33 -14 -41 -14 -8 0 -25
-8 -38 -19 -13 -10 -40 -21 -60 -25 -21 -4 -42 -13 -48 -20 -7 -8 -21 -12 -32
-9 -27 8 -22 47 8 51 11 2 69 28 129 58 59 30 113 54 120 54 12 0 113 43 181
77 48 23 30 35 -20 13 -62 -29 -82 -26 -93 12 -10 33 -23 40 -57 31z m-107
-163 c0 -5 -13 -10 -30 -10 -16 0 -30 5 -30 10 0 6 14 10 30 10 17 0 30 -4 30
-10z m-197 -133 c15 -38 -32 -63 -82 -44 -25 9 -39 8 -85 -12 -30 -12 -65 -21
-78 -19 -17 2 -10 7 29 21 28 9 58 17 65 17 7 0 30 14 51 30 44 32 88 35 100
7z m-346 -113 c4 -11 -91 -54 -119 -54 -8 0 -28 -7 -44 -15 -16 -8 -49 -17
-74 -20 -25 -4 -65 -15 -90 -25 -25 -10 -73 -24 -107 -31 -35 -6 -77 -22 -95
-36 -18 -13 -51 -28 -73 -34 -22 -6 -77 -29 -122 -50 -45 -21 -91 -39 -101
-39 -50 0 -29 41 30 60 24 8 49 20 56 26 6 7 36 20 66 28 30 9 67 27 83 39 40
33 197 82 257 80 38 -2 52 2 65 18 9 12 35 25 56 29 22 5 58 15 80 24 44 17
126 17 132 0z m-1012 -184 c4 -6 -12 -10 -40 -10 -28 0 -44 4 -40 10 3 6 21
10 40 10 19 0 37 -4 40 -10z m670 -16 c15 -6 15 -8 -1 -25 -17 -19 -44 -15
-44 6 0 7 6 16 13 18 6 3 13 6 14 6 1 1 9 -2 18 -5z m-1216 -113 c21 -13 -5
-24 -37 -16 -25 7 -25 8 -7 15 26 11 28 11 44 1z m849 -23 c-3 -7 -18 -14 -34
-16 -28 -2 -28 -2 -10 13 24 18 49 20 44 3z m-108 -28 c0 -13 -70 -42 -94 -38
-14 2 -7 9 25 25 48 25 69 29 69 13z"/>
<path d="M17996 2211 c-4 -5 -2 -12 3 -15 5 -4 12 -2 15 3 4 5 2 12 -3 15 -5
4 -12 2 -15 -3z"/>
<path d="M17280 2123 c-19 -2 -51 -6 -70 -9 l-35 -7 30 -13 c17 -7 51 -13 78
-14 44 0 47 2 47 25 0 14 -3 24 -7 23 -5 0 -24 -3 -43 -5z"/>
<path d="M16495 2050 c3 -5 10 -10 16 -10 5 0 9 5 9 10 0 6 -7 10 -16 10 -8 0
-12 -4 -9 -10z"/>
<path d="M16897 2042 c-25 -27 -22 -53 6 -48 17 2 23 11 25 34 4 36 -7 41 -31
14z"/>
<path d="M18702 2023 c-5 -10 -12 -52 -15 -93 -4 -41 -9 -102 -13 -135 -3 -33
-7 -112 -9 -175 -2 -63 -3 -119 -4 -125 -2 -16 -26 36 -42 89 -9 31 -21 51
-32 54 -10 3 -31 33 -48 71 -27 57 -30 75 -26 131 2 40 -1 76 -9 95 -7 17 -13
45 -14 63 0 50 -31 39 -47 -18 -8 -25 -20 -53 -28 -64 -20 -26 -45 -13 -45 22
0 37 -8 44 -31 29 -17 -10 -19 -25 -19 -122 0 -141 -3 -153 -39 -147 -21 3
-33 -3 -49 -22 -16 -21 -26 -25 -46 -20 -29 7 -28 2 -30 139 -1 93 -2 100 -22
103 -35 5 -109 -40 -112 -68 -2 -14 -10 -32 -17 -40 -24 -28 -27 -60 -10 -87
12 -17 15 -37 12 -59 -4 -26 -2 -36 12 -44 21 -11 42 5 34 26 -8 22 5 16 18
-8 11 -20 32 -329 29 -435 -1 -40 15 -67 25 -41 3 7 6 67 8 134 3 67 9 129 14
139 10 17 11 17 20 -1 27 -52 21 -194 -9 -194 -4 0 -8 -11 -8 -25 0 -35 46
-35 62 0 13 30 28 23 28 -13 0 -42 -13 -55 -47 -48 l-30 7 -6 -111 c-3 -60 -1
-125 4 -142 6 -22 5 -44 -2 -66 -6 -18 -8 -40 -5 -48 5 -13 10 -13 36 2 27 17
29 21 23 57 l-6 40 29 -8 c43 -11 96 -8 105 6 4 7 5 27 2 44 -4 22 -1 34 9 37
10 4 25 -16 49 -66 l34 -71 3 64 c3 60 4 63 25 57 12 -3 31 -6 43 -6 11 0 38
-16 58 -36 34 -33 39 -35 68 -25 34 12 57 39 74 85 7 20 18 30 33 31 12 1 39
18 58 38 31 30 37 44 41 90 2 32 0 57 -6 61 -12 7 -54 -7 -73 -26 -39 -38 -60
-46 -90 -35 -30 12 -71 63 -84 106 l-7 23 47 -27 47 -28 -33 46 c-18 26 -30
50 -26 53 7 8 77 -23 77 -34 0 -4 13 -15 29 -25 28 -16 30 -16 52 2 23 19 24
24 25 185 1 91 4 173 8 181 3 8 6 70 6 138 1 108 4 124 21 137 27 21 28 83 2
118 -12 16 -34 29 -54 33 -19 4 -42 10 -51 13 -11 5 -20 1 -26 -11z m-611
-223 c26 -14 24 -29 -6 -40 -17 -6 -25 -18 -26 -35 -1 -14 -3 -29 -4 -35 -1
-5 -4 -18 -5 -27 -1 -10 -6 -3 -10 15 -9 38 -3 101 12 120 13 15 14 15 39 2z
m661 -100 c-6 -41 -12 -38 -12 6 0 19 4 33 8 30 5 -3 7 -19 4 -36z m-10 -128
c-3 -34 -8 -52 -15 -49 -12 4 -12 76 -1 106 10 29 20 -6 16 -57z m-585 16 c-3
-7 -5 -2 -5 12 0 14 2 19 5 13 2 -7 2 -19 0 -25z m407 16 c9 -3 16 -13 16 -22
0 -8 6 -23 14 -31 27 -29 29 -65 6 -79 -16 -10 -25 -10 -35 -2 -16 13 -39 115
-30 130 7 12 8 12 29 4z"/>
<path d="M16560 1970 c0 -5 5 -10 10 -10 6 0 10 5 10 10 0 6 -4 10 -10 10 -5
0 -10 -4 -10 -10z"/>
<path d="M17670 1900 c-11 -11 -24 -20 -29 -20 -12 0 -35 -29 -29 -36 6 -6
103 26 133 44 17 10 18 13 5 22 -24 16 -58 12 -80 -10z"/>
<path d="M16341 1847 c-19 -7 -36 -18 -39 -24 -4 -13 1 -14 115 -18 29 -2 63
-5 77 -9 23 -6 26 -3 26 18 0 20 -4 24 -27 21 -15 -1 -48 3 -73 11 -25 8 -45
14 -45 13 0 0 -15 -5 -34 -12z"/>
<path d="M17926 1811 c-9 -14 18 -68 32 -64 13 5 16 31 6 57 -7 17 -29 21 -38
7z"/>
<path d="M17875 1738 c-3 -7 -8 -31 -13 -53 -6 -31 -13 -41 -30 -43 -28 -4
-28 -15 1 -27 19 -9 22 -17 20 -60 -3 -73 -10 -138 -18 -157 -9 -24 1 -48 20
-48 18 0 34 37 36 83 l2 32 4 -30 c2 -16 14 -37 25 -46 25 -20 17 -59 -13 -59
-10 0 -19 -7 -19 -15 0 -8 -9 -15 -21 -15 -16 0 -19 -4 -14 -22 13 -41 24 -43
40 -5 16 39 35 47 55 22 9 -11 9 -19 -3 -36 -22 -31 -12 -49 24 -42 24 5 29 2
29 -15 0 -20 -23 -46 -32 -37 -3 3 -5 -7 -4 -21 1 -15 7 -29 14 -32 7 -2 11 2
10 9 -2 7 10 15 27 18 25 5 30 11 33 40 6 55 -5 81 -33 81 -32 0 -32 13 0 34
30 20 33 46 6 53 -25 6 -33 50 -13 70 13 13 14 18 2 37 -8 11 -17 46 -21 76
-11 84 -20 113 -41 136 -10 12 -22 34 -27 50 -8 31 -38 45 -46 22z"/>
<path d="M17070 1666 c0 -21 11 -25 38 -15 32 12 27 29 -8 29 -19 0 -30 -5
-30 -14z"/>
<path d="M15120 1530 c-13 -8 -12 -10 3 -10 9 0 17 5 17 10 0 12 -1 12 -20 0z"/>
<path d="M18978 1458 c-16 -13 -31 -81 -21 -92 3 -3 18 8 33 24 27 29 70 41
70 20 0 -5 -10 -29 -22 -54 -15 -32 -28 -46 -48 -50 -48 -9 -57 -27 -55 -108
2 -57 6 -74 18 -76 11 -2 19 10 27 40 6 24 20 61 30 83 10 22 20 47 23 55 8
25 24 -29 32 -105 10 -112 12 -117 43 -113 25 3 27 6 30 60 2 32 -4 81 -13
109 -8 29 -15 77 -15 107 0 33 -7 65 -17 83 -15 24 -24 29 -58 29 -23 0 -48
-6 -57 -12z"/>
<path d="M19177 1425 c-4 -8 -2 -17 3 -20 6 -4 10 3 10 14 0 25 -6 27 -13 6z"/>
<path d="M17180 1396 c0 -9 5 -16 10 -16 6 0 10 4 10 9 0 6 -4 13 -10 16 -5 3
-10 -1 -10 -9z"/>
<path d="M15703 1383 c-21 -8 -15 -22 7 -16 11 3 20 9 20 14 0 10 -8 10 -27 2z"/>
<path d="M15435 1300 c-4 -6 5 -10 20 -10 15 0 24 4 20 10 -3 6 -12 10 -20 10
-8 0 -17 -4 -20 -10z"/>
<path d="M15395 1280 c-3 -5 -2 -10 4 -10 5 0 13 5 16 10 3 6 2 10 -4 10 -5 0
-13 -4 -16 -10z"/>
<path d="M16180 1220 c0 -11 6 -20 14 -20 7 0 16 9 19 20 4 15 0 20 -14 20
-12 0 -19 -7 -19 -20z"/>
<path d="M17876 1184 c-4 -9 -4 -19 -2 -22 10 -9 36 8 36 23 0 20 -26 19 -34
-1z"/>
<path d="M13477 1158 c-4 -12 -4 -24 -2 -27 3 -2 5 1 5 7 0 7 14 12 31 12 37
0 35 23 -3 28 -19 2 -27 -2 -31 -20z"/>
<path d="M18019 1108 c-24 -20 -41 -66 -26 -71 9 -3 9 -9 -1 -26 -16 -27 -5
-71 17 -71 40 0 56 25 54 86 -4 91 -13 107 -44 82z"/>
<path d="M13550 1034 c-7 -17 -7 -31 -1 -37 14 -14 31 1 31 28 0 35 -18 40
-30 9z"/>
<path d="M13830 945 c0 -9 -7 -18 -15 -21 -21 -8 -19 -37 4 -65 17 -21 21 -22
47 -10 16 8 66 17 112 21 45 4 84 9 87 11 2 3 2 15 -1 26 -8 30 -80 53 -166
53 -54 0 -68 -3 -68 -15z"/>
<path d="M14418 929 c-23 -17 -28 -28 -28 -63 l0 -43 53 4 c115 9 117 10 117
53 0 29 -6 43 -22 54 -31 22 -88 19 -120 -5z"/>
<path d="M18016 906 c-24 -37 -20 -46 19 -46 39 0 55 21 38 49 -16 25 -39 24
-57 -3z"/>
<path d="M13403 889 c-6 -6 -27 -11 -46 -12 -29 -1 -32 -3 -21 -15 8 -7 17
-25 21 -40 3 -15 12 -33 20 -40 7 -7 13 -27 13 -43 0 -16 4 -29 9 -29 5 0 35
23 65 51 32 30 61 48 69 45 6 -4 23 -13 37 -21 33 -19 74 -19 116 1 39 19 39
16 19 54 -11 20 -23 30 -39 30 -13 0 -40 7 -59 15 -43 18 -188 20 -204 4z"/>
<path d="M17910 890 c0 -5 4 -10 9 -10 6 0 13 5 16 10 3 6 -1 10 -9 10 -9 0
-16 -4 -16 -10z"/>
<path d="M15586 845 c-11 -8 -32 -15 -46 -15 -32 0 -50 -17 -50 -47 0 -15 -10
-28 -30 -38 -16 -8 -34 -24 -40 -35 -8 -15 -21 -20 -49 -20 -21 0 -52 -7 -67
-15 -16 -8 -39 -15 -50 -15 -12 0 -27 -6 -33 -14 -10 -11 -7 -17 11 -30 12 -9
28 -16 35 -16 17 0 16 -15 -2 -30 -9 -7 -28 -10 -47 -6 -26 5 -40 1 -63 -18
l-30 -24 -47 24 c-49 25 -166 35 -153 14 3 -5 17 -10 30 -10 40 0 55 -11 55
-40 0 -27 -1 -27 -42 -19 -24 4 -56 5 -73 2 -27 -5 -28 -4 -13 8 9 8 18 25 20
39 3 24 1 25 -59 28 -61 3 -69 -1 -64 -31 1 -4 -10 -5 -25 -1 -18 5 -30 1 -45
-15 -18 -19 -19 -23 -5 -37 22 -22 20 -26 -19 -52 -38 -24 -42 -34 -21 -51 11
-10 11 -17 -5 -48 -13 -25 -19 -58 -19 -100 0 -56 2 -63 20 -63 11 0 34 8 52
18 18 10 58 29 88 41 30 13 66 31 80 41 14 9 49 25 78 36 30 10 58 27 63 36
11 20 50 24 80 8 18 -10 19 -23 19 -180 l0 -170 439 0 c438 0 440 0 446 21 4
12 2 26 -4 32 -6 6 -11 17 -11 23 0 22 51 74 72 74 13 0 18 6 16 17 -2 10 -10
18 -18 18 -8 0 -29 6 -47 14 -27 11 -35 11 -55 -3 -30 -22 -45 -20 -53 5 -5
15 -1 25 13 35 13 9 18 21 15 38 -8 40 13 66 52 66 26 0 39 6 51 25 9 14 15
28 12 30 -2 2 -31 -3 -63 -11 -33 -9 -80 -19 -105 -24 -25 -4 -62 -11 -82 -15
-31 -6 -38 -5 -38 8 0 8 17 22 38 32 94 43 121 59 116 67 -7 11 -62 10 -69 -2
-3 -6 -26 -10 -51 -10 -33 0 -54 -7 -78 -25 -18 -14 -36 -25 -40 -25 -5 0 -21
14 -37 31 -22 24 -34 29 -51 24 -32 -10 -32 -11 -9 -36 25 -27 25 -29 7 -55
-13 -18 -57 -41 -109 -58 -22 -7 -13 -26 11 -26 10 0 28 7 41 16 45 32 191 49
191 23 0 -5 -11 -7 -25 -3 -15 4 -32 1 -41 -7 -18 -15 -51 -35 -74 -45 -8 -3
-33 -14 -55 -24 -44 -20 -175 -33 -175 -18 0 5 4 7 9 3 12 -7 52 35 45 47 -3
4 -14 8 -24 8 -31 0 -33 19 -6 59 14 20 26 46 26 57 0 26 11 40 37 48 12 4 38
25 56 47 19 21 41 39 50 39 8 0 36 16 61 35 45 34 47 35 91 23 43 -12 45 -14
45 -49 0 -21 4 -41 10 -44 5 -3 27 4 49 17 33 20 37 26 30 46 -5 12 -17 22
-27 22 -10 0 -29 12 -43 26 -13 14 -38 34 -56 45 -37 23 -43 39 -14 39 24 0
45 25 37 45 -3 8 -14 15 -24 15 -18 0 -62 39 -62 55 0 5 7 17 16 26 16 17 15
19 -10 29 -34 13 -37 12 -60 -5z m254 -644 c0 -11 -40 -22 -52 -15 -5 3 -6 10
-3 15 8 12 55 12 55 0z m-318 -125 c19 -27 6 -32 -37 -16 -22 8 -25 13 -15 25
12 14 39 10 52 -9z"/>
<path d="M14140 831 c-14 -4 -56 -21 -93 -39 -38 -18 -74 -32 -81 -32 -7 0
-17 -5 -22 -10 -15 -15 -120 -40 -169 -40 -31 0 -59 -9 -95 -30 -28 -16 -59
-30 -68 -30 -62 0 -193 -79 -147 -88 9 -2 29 1 43 6 15 5 56 18 92 27 36 9 74
21 85 25 28 10 169 50 235 66 125 31 142 34 186 34 47 0 94 19 130 51 11 11
49 24 83 30 34 6 59 15 54 19 -11 11 -202 20 -233 11z"/>
<path d="M12563 747 c-3 -5 0 -13 7 -17 9 -5 9 -9 1 -14 -23 -15 -10 -36 29
-46 22 -5 59 -15 82 -21 22 -6 48 -17 55 -25 19 -19 26 -18 52 10 18 19 21 31
16 58 -4 19 -10 40 -14 46 -9 15 -219 23 -228 9z"/>
<path d="M18172 713 c2 -10 10 -18 18 -18 8 0 16 8 18 18 2 12 -3 17 -18 17
-15 0 -20 -5 -18 -17z"/>
<path d="M13312 548 c-21 -21 -13 -28 36 -28 53 0 63 5 55 26 -6 17 -74 19
-91 2z"/>
<path d="M17800 530 c0 -5 7 -10 15 -10 8 0 15 5 15 10 0 6 -7 10 -15 10 -8 0
-15 -4 -15 -10z"/>
<path d="M14452 478 c-7 -7 -12 -18 -12 -25 0 -10 -22 -13 -82 -13 -68 0 -92
-5 -133 -25 -32 -15 -68 -24 -99 -25 -38 0 -56 -6 -85 -29 -20 -15 -53 -31
-75 -35 -21 -4 -48 -18 -61 -32 -23 -24 -51 -32 -57 -14 -1 5 -27 11 -57 12
-46 3 -58 0 -77 -19 -28 -28 -63 -29 -97 -3 -45 35 -157 19 -157 -24 0 -9 -24
-12 -87 -12 -49 0 -110 -6 -138 -13 -159 -41 -177 -50 -190 -102 -8 -33 -38
-41 -94 -26 -31 9 -62 7 -138 -7 -54 -10 -107 -24 -118 -31 -11 -6 -38 -18
-60 -25 -22 -7 -44 -16 -50 -21 -5 -5 398 -8 960 -7 l970 3 -4 230 c-2 135 -7
235 -13 243 -13 15 -31 15 -46 0z"/>
<path d="M11428 419 c-2 -6 -16 -12 -31 -12 -15 -1 -29 -8 -32 -14 -2 -7 -13
-13 -24 -13 -57 0 -70 -44 -24 -80 23 -18 25 -24 15 -38 -7 -9 -15 -24 -19
-32 -16 -33 -57 -76 -117 -121 -36 -27 -45 -29 -132 -29 -99 0 -124 5 -124 25
0 7 -9 15 -20 18 -12 3 -20 0 -20 -8 0 -7 -13 -18 -29 -25 -16 -6 -32 -18 -34
-24 -7 -19 -193 -32 -213 -15 -23 19 -168 17 -191 -2 -10 -9 -26 -19 -35 -22
-10 -4 -18 -11 -18 -17 0 -7 138 -10 421 -10 404 0 422 1 469 21 34 14 50 28
54 45 4 14 14 24 24 24 10 0 35 17 56 39 33 34 45 39 98 45 34 3 69 12 77 20
31 28 77 38 184 38 105 -1 107 0 107 22 0 39 -22 47 -147 52 -131 6 -183 22
-183 58 0 40 -28 66 -70 66 -21 0 -40 -5 -42 -11z"/>
<path d="M14075 420 c-3 -5 -1 -10 4 -10 6 0 11 5 11 10 0 6 -2 10 -4 10 -3 0
-8 -4 -11 -10z"/>
<path d="M12727 392 c-26 -28 -21 -61 9 -72 50 -20 64 -14 64 28 0 59 -39 82
-73 44z"/>
<path d="M12175 223 c-36 -12 -89 -17 -189 -18 -128 -2 -140 -4 -155 -23 -9
-11 -41 -33 -71 -47 -30 -14 -63 -30 -72 -36 -10 -5 -26 -9 -35 -9 -10 0 -27
-7 -37 -15 -11 -8 -26 -15 -34 -15 -13 0 -52 -15 -111 -44 -19 -9 12 -12 159
-14 146 -2 186 0 199 12 9 7 32 17 51 21 19 3 64 17 100 30 36 13 108 33 160
44 173 40 260 73 260 100 0 27 -159 36 -225 14z"/>
</g>
</svg>
